<svg width="420" height="480" viewBox="0 0 420 480" fill="none" xmlns="http://www.w3.org/2000/svg">
<path d="M210 420C325.98 420 420 325.98 420 210C420 94.0202 325.98 0 210 0C94.0202 0 0 94.0202 0 210C0 325.98 94.0202 420 210 420Z" fill="#A5A1FF"/>
<path d="M210 403.85C317.061 403.85 403.85 317.06 403.85 210C403.85 102.94 317.061 16.15 210 16.15C102.94 16.15 16.1504 102.94 16.1504 210C16.1504 317.06 102.94 403.85 210 403.85Z" fill="#24004F"/>
<path d="M259.44 202.4C259.44 192.854 257.56 183.402 253.907 174.583C250.254 165.764 244.899 157.75 238.15 151C231.4 144.251 223.386 138.896 214.567 135.243C205.748 131.59 196.296 129.71 186.75 129.71C196.297 129.709 205.75 127.827 214.57 124.172C223.39 120.517 231.404 115.161 238.154 108.41C244.904 101.658 250.258 93.6427 253.91 84.8219C257.562 76.001 259.441 66.5471 259.44 57C259.44 76.2786 267.098 94.7676 280.73 108.4C294.362 122.032 312.851 129.69 332.13 129.69C322.582 129.689 313.128 131.569 304.307 135.222C295.486 138.876 287.471 144.232 280.72 150.985C273.97 157.737 268.616 165.753 264.965 174.575C261.313 183.397 259.436 192.852 259.44 202.4Z" fill="white"/>
<path d="M210 403.85C296.24 403.85 369.31 347.52 394.48 269.66C382.326 258.23 367.88 249.515 352.102 244.093C336.323 238.671 319.572 236.666 302.959 238.211C286.347 239.756 270.253 244.816 255.745 253.055C241.237 261.294 228.647 272.524 218.81 286C202.704 272.671 182.446 265.391 161.54 265.42C158.54 265.42 155.61 265.57 152.71 265.86C155.809 248.888 155.142 231.442 150.756 214.755C146.369 198.069 138.371 182.55 127.325 169.297C116.279 156.043 102.457 145.377 86.8348 138.055C71.2128 130.732 54.1727 126.931 36.9196 126.92H34.8096C22.482 152.879 16.1069 181.263 16.1496 210C16.1496 317.06 102.94 403.85 210 403.85Z" fill="#7000CF"/>
<path d="M154.44 299.32H138.29V315.47H154.44V299.32Z" fill="white"/>
<path d="M57.5103 170.09H41.3604V186.24H57.5103V170.09Z" fill="white"/>
<path d="M138.28 250.86H122.13V267.01H138.28V250.86Z" fill="white"/>
<path d="M73.6695 283.17H57.5195V299.32H73.6695V283.17Z" fill="white"/>
<path d="M315.97 331.63H299.82V347.78H315.97V331.63Z" fill="white"/>
<path d="M70 380H180V480H60V390C60 387.348 61.0536 384.804 62.9289 382.929C64.8043 381.054 67.3478 380 70 380Z" fill="#FFDA3A"/>
<path d="M300 380H350C352.652 380 355.196 381.054 357.071 382.929C358.946 384.804 360 387.348 360 390V480H300V380Z" fill="#FFDA3A"/>
<path d="M300 380H180V480H300V380Z" fill="#FFEB6F"/>
</svg>
