<svg width="121" height="71" viewBox="0 0 121 71" fill="none" xmlns="http://www.w3.org/2000/svg">
<path fill-rule="evenodd" clip-rule="evenodd" d="M49.7819 2.14695C52.3916 3.77497 54.1442 6.35534 70.1639 32.1577C86.9221 59.1491 87.691 60.5202 87.691 63.4208C87.691 66.051 87.4118 66.7322 85.5913 68.5447C83.7609 70.367 83.094 70.635 80.3898 70.635C77.9678 70.635 76.8784 70.292 75.4216 69.0716C74.3953 68.2121 69.605 61.0876 64.7771 53.2402C50.3809 29.8411 43.1162 18.2808 42.9383 18.488C41.3117 20.3865 37.0525 28.5525 37.0525 29.7716C37.0525 30.7848 40.1297 36.5432 45.0627 44.7601C49.4682 52.0985 53.5057 59.1344 54.0349 60.3954C56.0963 65.3077 52.5269 70.635 47.1728 70.635C45.6586 70.635 43.73 70.185 42.8871 69.6354C42.0441 69.0851 38.2857 63.5518 34.5354 57.3391C30.7851 51.1259 27.4856 46.0426 27.2027 46.0426C26.9199 46.0426 23.7723 50.9537 20.2084 56.9555C16.6446 62.9573 13.1518 68.3855 12.4472 69.0169C11.7426 69.6489 9.94983 70.3018 8.46403 70.4691C3.63732 71.0107 0 67.8844 0 63.1934C0 60.9093 0.0259378 60.8614 18.3694 29.4427C25.9701 16.4241 33.0953 4.85765 34.2032 3.73931C38.3376 -0.434645 44.6156 -1.07589 49.7819 2.14695ZM83.987 2.15248C85.7994 4.00306 119.41 57.8457 120.447 60.5583C121.942 64.474 120.356 68.1168 116.307 70.0682C114.117 71.1238 113.333 71.2185 111.297 70.6726C109.969 70.3166 108.436 69.5333 107.889 68.9314C107.342 68.3295 98.8246 54.8412 88.9613 38.9569C69.7075 7.94893 69.702 7.93724 71.9517 3.6059C74.0735 -0.480753 80.6325 -1.27201 83.987 2.15248Z" fill="#236DFD"/>
</svg>
