<svg width="54" height="54" viewBox="0 0 54 54" fill="none" xmlns="http://www.w3.org/2000/svg">
<circle cx="27" cy="27" r="27" fill="#173DED"/>
<path d="M10.5237 30.3588C9.91111 28.3861 12.2582 28.1675 13.361 29.9141C14.4207 31.5927 15.8847 33.1753 17.9071 34.2344C19.1419 34.8802 20.1913 35.1264 21.6624 35.4701C27.8684 36.9213 33.2291 35.4881 34.8999 35.0191C36.0702 34.6917 36.3432 34.533 40.7378 33.1837C42.4507 32.6596 44.0329 32.1879 46.1335 32.2493V32.2493C46.7458 32.2672 46.7942 33.0504 46.2152 33.2503C45.149 33.6184 44.1035 34.0465 43.0838 34.533C40.9402 35.5531 40.2051 36.2151 38.3436 37.1396C36.1461 38.221 33.8086 38.9861 31.3998 39.4125C29.1613 39.8355 25.3837 40.5516 20.853 39.2817C18.9315 38.7405 15.7287 37.7998 13.1275 34.8622C11.3126 32.8148 10.6509 30.7683 10.5237 30.3588V30.3588Z" fill="white"/>
<path d="M13.3417 19.2436C13.8134 18.2171 15.0221 19.0469 14.8465 20.1627C14.724 20.9416 14.6749 21.7775 14.7369 22.6599C14.8248 23.888 15.109 25.0938 15.5785 26.2307C17.1526 29.9548 20.6053 32.2385 20.3832 32.5037C20.368 32.5226 20.3295 32.5371 20.2238 32.5037C19.075 32.0698 16.4632 30.8982 14.5247 28.1248C13.9534 27.3067 12.7088 25.5245 12.5745 23.1036C12.4941 21.6669 12.8251 20.3681 13.3417 19.2436Z" fill="white"/>
<path d="M29.6644 23.5907C29.8345 23.5556 30.1273 20.2869 28.1602 18.5029C27.0615 17.5107 25.7077 17.3818 25.2295 17.3376C24.9681 17.3132 22.9991 17.1617 21.2585 18.4641C18.7586 20.3329 18.7917 23.6566 18.8293 24.4458C18.9896 27.8497 21.3964 30.0676 21.9139 30.5438C27.9327 36.088 38.9729 32.2575 40.7306 31.3204C40.8103 31.278 41.112 31.1129 41.5364 30.9316C42.3467 30.5889 43.3845 30.2831 45.7394 30.1199V30.1199C46.5874 30.0595 46.7805 29.0377 45.9461 28.8744C45.3358 28.7548 44.8006 28.7014 44.3551 28.6795C43.1114 28.6173 41.8937 28.7697 39.4582 29.0673C38.4285 29.1945 38.0408 29.2649 37.2197 29.3785C32.4303 30.0441 29.9859 30.358 27.5414 29.4173C26.1267 28.8761 25.2725 28.1816 24.9967 27.9408C24.3351 27.3654 23 26.2037 22.7216 24.2897C22.6732 23.9596 22.3276 21.3133 24.0709 20.1733C25.1812 19.4463 26.4634 19.7845 26.6138 19.8233C27.7904 20.1507 28.4109 21.086 28.812 21.6876C29.5292 22.761 29.5758 23.6097 29.6644 23.5907Z" fill="white"/>
<path d="M16.979 21.339C16.9173 20.6472 16.8501 18.8686 17.9049 17.0656C18.1269 16.6868 18.7707 15.6126 19.9867 14.8522C20.5701 14.4873 21.1766 14.2624 21.7732 14.136C22.8261 13.9129 22.7713 15.0895 21.7873 15.5257C20.7491 15.9859 20.0732 16.568 19.6133 17.1206C18.1681 18.856 17.5924 21.8107 17.1545 21.7025C17.048 21.679 17.0014 21.4824 16.979 21.339Z" fill="white"/>
</svg>
