<svg width="22" height="22" viewBox="0 0 22 22" fill="none" xmlns="http://www.w3.org/2000/svg">
<path d="M10.8851 21.7702C16.8968 21.7702 21.7702 16.8968 21.7702 10.8851C21.7702 4.87344 16.8968 0 10.8851 0C4.87344 0 0 4.87344 0 10.8851C0 16.8968 4.87344 21.7702 10.8851 21.7702Z" fill="#00A2FD"/>
<path fill-rule="evenodd" clip-rule="evenodd" d="M11 0.229757C5.05176 0.229757 0.229757 5.05176 0.229757 11C0.229757 16.9482 5.05176 21.7702 11 21.7702C16.9482 21.7702 21.7702 16.9482 21.7702 11C21.7702 5.05176 16.9482 0.229757 11 0.229757ZM0 11C0 4.92487 4.92487 0 11 0C17.0751 0 22 4.92487 22 11C22 17.0751 17.0751 22 11 22C4.92487 22 0 17.0751 0 11Z" fill="white"/>
<path d="M18.5108 8.78074C18.2405 8.45372 17.954 8.23697 17.7771 8.39091C17.6462 8.50502 17.7534 8.85732 18.023 9.18358C18.2925 9.50983 18.5851 9.71586 18.7559 9.57341C18.8899 9.46159 18.7804 9.10699 18.5108 8.78074ZM18.6495 9.5129C18.6429 9.51399 18.6362 9.51399 18.6296 9.5129C18.613 9.51342 18.5965 9.51028 18.5813 9.5037C18.5944 9.4821 18.603 9.45807 18.6065 9.43306C18.6101 9.40805 18.6085 9.38259 18.602 9.3582C18.602 9.3582 18.602 9.35053 18.602 9.34746C18.5667 9.23029 18.4342 8.9791 18.1631 8.67199L18.1486 8.65589C18.1273 8.6308 18.1037 8.60774 18.0781 8.58697L18.0444 8.55941C18.0011 8.52631 17.9534 8.49925 17.9027 8.47899C17.8862 8.47182 17.869 8.46618 17.8514 8.46215C17.8568 8.45296 17.8836 8.41925 17.9793 8.43687C18.2236 8.48282 18.6854 9.02811 18.7092 9.32297C18.7176 9.45623 18.6839 9.50065 18.6495 9.5129Z" fill="white"/>
<path d="M5.41388 16.6986C5.12318 16.3692 4.873 16.0061 4.6687 15.6172C4.7338 15.7558 4.80732 15.8975 4.89233 16.0399C5.04611 16.2944 5.23223 16.5279 5.44604 16.7346C5.43378 16.7216 5.42307 16.7101 5.41388 16.6986ZM7.2274 17.6498C6.82679 17.5889 6.44167 17.4514 6.09316 17.2446C6.13912 17.2737 6.18663 17.3021 6.23564 17.3296C6.33137 17.3855 6.434 17.4384 6.54198 17.4882C6.57798 17.5043 6.61318 17.5203 6.64994 17.5357L6.73726 17.5724C6.77019 17.5862 6.86209 17.6214 6.99458 17.6613C7.08429 17.6677 7.17427 17.6695 7.26416 17.6666C7.28714 17.6666 7.30936 17.6666 7.33233 17.6666C7.29481 17.6605 7.2611 17.6559 7.2274 17.6498Z" fill="white"/>
<path d="M12.3241 18.7353C12.3907 18.6656 11.6547 18.115 11.6547 18.115C11.6406 18.1037 11.6226 18.0985 11.6047 18.1005C11.5867 18.1025 11.5703 18.1116 11.559 18.1257C11.5477 18.1399 11.5425 18.1581 11.5445 18.1761C11.5465 18.1942 11.5556 18.2108 11.5697 18.2222C11.5697 18.2222 12.2628 18.8004 12.3241 18.7353Z" fill="white"/>
<path d="M4.32792 8.33015C4.14641 8.1831 3.8684 8.40675 3.6103 8.74679C3.35221 9.08683 3.25801 9.44218 3.39509 9.5494C3.57124 9.68496 3.85464 9.46822 4.1135 9.13125C4.37236 8.79427 4.46424 8.4389 4.32792 8.33015ZM4.20998 8.42588C4.1602 8.44826 4.11359 8.47711 4.07135 8.51166C4.06063 8.52085 4.04917 8.5308 4.03844 8.54152C4.01411 8.56343 3.99155 8.58726 3.97102 8.61276C3.96642 8.61812 3.96107 8.62348 3.95647 8.62961C3.69761 8.94591 3.57353 9.20247 3.54367 9.31888C3.54321 9.32318 3.54192 9.32733 3.53985 9.33113C3.53461 9.35563 3.53437 9.38094 3.5391 9.40554C3.54384 9.43015 3.55345 9.45355 3.56741 9.47435C3.5526 9.48239 3.53602 9.4866 3.51917 9.4866C3.51284 9.4877 3.50636 9.4877 3.50003 9.4866C3.46403 9.47511 3.42956 9.43223 3.43492 9.3005C3.44717 9.00488 3.88831 8.44196 4.13032 8.38835C4.22682 8.36614 4.25441 8.39984 4.259 8.40827C4.2422 8.41277 4.2258 8.41866 4.20998 8.42588Z" fill="white"/>
<path d="M10.1821 17.7299C10.1692 17.7113 10.1496 17.6985 10.1273 17.6943C10.1051 17.6902 10.0821 17.695 10.0634 17.7077L9.31745 18.1932C9.27839 18.22 8.70476 18.5853 8.77675 18.642C8.84874 18.6987 9.38945 18.3433 9.4017 18.3357L10.1599 17.8509C10.1695 17.8446 10.1778 17.8364 10.1841 17.8268C10.1905 17.8172 10.1948 17.8064 10.1969 17.7951C10.199 17.7838 10.1987 17.7722 10.1962 17.761C10.1937 17.7498 10.1889 17.7392 10.1821 17.7299Z" fill="white"/>
<path d="M12.5991 18.3324C12.6144 18.3431 13.1558 18.6946 13.224 18.6387C13.2922 18.5828 12.7224 18.2167 12.6833 18.1907L11.9373 17.7052C11.9281 17.6989 11.9177 17.6945 11.9068 17.6922C11.8958 17.6899 11.8845 17.6898 11.8735 17.6919C11.8625 17.694 11.852 17.6983 11.8427 17.7044C11.8334 17.7106 11.8253 17.7185 11.819 17.7277C11.8127 17.737 11.8084 17.7474 11.8061 17.7584C11.8038 17.7693 11.8037 17.7806 11.8058 17.7916C11.8079 17.8026 11.8122 17.813 11.8183 17.8224C11.8245 17.8317 11.8324 17.8398 11.8416 17.8461L12.5991 18.3324Z" fill="white"/>
<path d="M10.3459 18.1147C10.3459 18.1147 9.60988 18.6662 9.67651 18.7359C9.74314 18.8055 10.4309 18.222 10.4309 18.222C10.438 18.2165 10.444 18.2097 10.4484 18.2018C10.4529 18.194 10.4557 18.1854 10.4568 18.1765C10.4579 18.1676 10.4571 18.1586 10.4547 18.1499C10.4522 18.1413 10.448 18.1332 10.4424 18.1262C10.4311 18.112 10.4146 18.1027 10.3965 18.1006C10.3784 18.0984 10.3602 18.1035 10.3459 18.1147Z" fill="white"/>
<path opacity="0.3" d="M14.0542 7.59274L13.9477 7.55982L13.9194 7.54297C13.9654 7.55982 14.0098 7.57589 14.0542 7.59274Z" fill="white"/>
<path opacity="0.3" d="M4.65481 10.5024C4.64103 10.5315 4.62801 10.5606 4.61499 10.5897C4.60809 10.6043 4.60122 10.6188 4.59509 10.6334C4.61347 10.5882 4.63414 10.5446 4.65481 10.5024Z" fill="white"/>
<path opacity="0.3" d="M4.59509 10.6319C4.60122 10.6174 4.60809 10.6028 4.61499 10.5883C4.62801 10.5592 4.64103 10.5301 4.65481 10.501C4.63414 10.5446 4.61347 10.5883 4.59509 10.6319Z" fill="white"/>
<path d="M19.3225 8.70873C18.5865 6.98173 17.5319 5.00734 15.324 3.97037C14.3131 2.13921 11.3231 2.23801 11.0773 2.23725H10.9241C10.6775 2.23725 7.6884 2.13921 6.67747 3.97037C4.46874 5.00811 3.41415 6.98173 2.67893 8.70873C0.745909 9.07022 -0.445002 14.8869 4.30178 17.3629C5.03853 18.0522 5.75001 18.5668 6.96006 19.0294C8.25011 19.5222 9.62056 19.7707 11.0015 19.7623C12.3816 19.7705 13.7512 19.5223 15.0406 19.0302C16.2514 18.5707 16.9621 18.0552 17.6997 17.3629C22.4464 14.8869 21.2532 9.06945 19.3225 8.70873ZM18.4487 7.4351C18.4219 7.42362 17.7801 7.12187 17.1513 7.4351C16.9055 7.55688 16.6367 7.86015 16.5716 8.31354L16.5402 8.27601C16.5149 8.24844 15.085 6.80787 12.9889 6.48008C12.7009 6.4349 12.4972 6.30394 12.3976 6.16073C12.2092 5.89115 12.3685 5.50898 12.465 5.33743C12.5757 5.14338 12.7052 4.96072 12.8518 4.79213C13.0226 4.59837 13.3289 4.32037 13.6131 4.18941C13.8972 4.05845 14.2503 4.18175 14.8384 4.37474C15.2681 4.51566 15.7934 4.90625 16.0477 5.10767C16.0497 5.10959 16.052 5.11109 16.0545 5.11211C16.0571 5.11312 16.0598 5.11362 16.0625 5.11358C16.0653 5.11355 16.068 5.11298 16.0705 5.1119C16.073 5.11082 16.0753 5.10924 16.0772 5.10728C16.0791 5.10532 16.0806 5.103 16.0816 5.10046C16.0826 5.09791 16.0831 5.09521 16.0831 5.09247C16.0831 5.08974 16.0825 5.08702 16.0814 5.08451C16.0803 5.08199 16.0788 5.07971 16.0768 5.0778C15.8061 4.79226 15.4933 4.54975 15.1493 4.35866C14.7596 4.12462 14.3374 3.94939 13.8964 3.83864C13.947 3.80801 13.9991 3.77815 14.0534 3.74828C14.0542 3.74522 16.9843 4.64509 18.4487 7.4351ZM7.34374 17.667H7.32691C7.30394 17.667 7.28172 17.667 7.25874 17.667C7.16885 17.6698 7.07886 17.668 6.98916 17.6616C6.85666 17.6218 6.76477 17.585 6.73184 17.5728L6.64452 17.536C6.60776 17.5207 6.57252 17.5046 6.53652 17.4885C6.43083 17.4387 6.32821 17.3859 6.23018 17.33C6.17912 17.3024 6.13165 17.2741 6.08774 17.245L6.08008 17.2404L6.06938 17.2342C5.88276 17.1237 5.70864 16.9932 5.55011 16.8452L5.54323 16.8391C5.5034 16.8008 5.46662 16.7663 5.44058 16.7349C5.22677 16.5283 5.04065 16.2948 4.88686 16.0403C4.80185 15.8978 4.72834 15.7561 4.66324 15.6175L4.65789 15.6053C4.52601 15.3349 4.41935 15.0528 4.33928 14.7628C4.28602 14.5479 4.24892 14.3293 4.22826 14.1088C4.22789 14.1047 4.22789 14.1006 4.22826 14.0965C4.059 12.5296 4.18001 8.80293 8.32712 7.78587L8.39832 7.76903C8.63574 7.71235 8.87546 7.6641 9.11594 7.6304C9.53536 7.5662 9.96194 7.56439 10.3819 7.62504H10.3888C10.5915 7.65625 10.7965 7.67009 11.0015 7.6664C11.2045 7.67048 11.4074 7.6569 11.608 7.6258H11.6157C11.8944 7.58366 12.1769 7.57159 12.4582 7.58981C13.2359 7.65085 13.9989 7.83491 14.719 8.13511C18.585 9.79625 17.7885 14.3179 17.656 14.7643C17.5028 15.2867 17.3198 15.8427 16.5838 16.6997C16.3686 16.9524 15.6801 17.5521 14.6508 17.6685C14.4264 17.693 13.7402 17.7703 13.0586 17.4387C12.6366 17.232 12.534 17.0229 12.0209 16.8651C11.71 16.7751 11.3869 16.7348 11.0635 16.7456H10.9318C10.6084 16.7346 10.2853 16.775 9.97446 16.8651C9.45981 17.0221 9.36179 17.232 8.93521 17.438C8.25819 17.7688 7.57197 17.6915 7.34681 17.667H7.34374ZM4.59204 10.6326C4.61042 10.5889 4.63108 10.5453 4.65176 10.5016C4.63797 10.5307 4.62495 10.5598 4.61193 10.5889C4.60811 10.6035 4.60123 10.618 4.59511 10.6326H4.59204ZM16.2752 8.93083C15.8922 8.56321 15.2497 7.95743 14.0542 7.59441L13.9477 7.56148C13.6399 7.47501 13.3264 7.41001 13.0095 7.36695L12.8648 7.34781C12.2698 7.28092 11.6699 7.26861 11.0727 7.31105C11.0512 7.31105 11.0206 7.31104 10.9961 7.30721L10.9234 7.31105C7.65929 7.1012 6.34813 8.33269 5.72396 8.93083C5.5616 9.084 4.94507 9.79624 4.80875 9.9586C5.20316 8.59078 6.73337 7.54309 8.01618 7.10962C8.77744 6.85229 9.63978 6.7849 10.9976 6.81631C11.2019 6.81069 11.3951 6.80813 11.5774 6.80864C12.6106 6.80864 13.3305 6.89135 13.9769 7.10885C15.2597 7.54232 16.7906 8.59003 17.185 9.95708C17.0517 9.79549 16.436 9.08629 16.2752 8.93083ZM10.9318 6.48008C10.8655 6.48433 10.7988 6.47866 10.7342 6.46324C10.702 6.26411 10.241 5.3359 10.0097 4.99126C9.74223 4.60263 9.42704 4.2491 9.07152 3.93898C8.92371 3.81184 8.80654 3.83023 8.75369 3.84938C8.55633 3.69768 8.33943 3.57325 8.10885 3.47946C8.11215 3.47655 8.11572 3.47398 8.11954 3.4718C8.33284 3.3306 8.55663 3.20593 8.78892 3.09883C8.92269 3.07542 9.05912 3.07128 9.19406 3.08657C9.8081 3.1712 10.3924 3.40381 10.8966 3.76436C10.9119 3.77508 10.9234 3.78428 10.9333 3.78964C10.9481 3.80003 10.9658 3.8054 10.9839 3.80495C11.0013 3.8051 11.0183 3.80004 11.0329 3.7904C11.0436 3.78428 11.0597 3.77278 11.0811 3.75823C11.7053 3.32858 12.285 3.10342 12.8035 3.08657C12.9844 3.08308 13.1649 3.10526 13.3396 3.15244C13.5263 3.24345 13.7056 3.34894 13.8757 3.46796L13.8903 3.4787C13.6596 3.57277 13.4425 3.69717 13.2447 3.84861C13.1926 3.82946 13.0746 3.81184 12.9268 3.93744C12.572 4.24831 12.2571 4.60203 11.9894 4.9905C11.7597 5.3359 11.3002 6.26335 11.2642 6.46247C11.1998 6.47833 11.1334 6.48402 11.0673 6.47932H11.0574H11.0191H10.9961C10.977 6.47932 10.9563 6.47932 10.9364 6.47932H10.9264L10.9318 6.48008ZM14.7519 3.51009C14.7519 3.51009 12.9866 3.46721 11.7535 6.41346H11.6578C11.6578 6.41346 12.0944 5.26467 12.5432 4.73853C13.1895 3.98492 13.9378 3.3753 14.6447 3.41129C14.6523 3.41589 14.7503 3.50702 14.7503 3.50702L14.7519 3.51009ZM12.9904 2.65233C14.1315 2.92268 14.5443 3.32936 14.5443 3.32936C14.4968 3.33319 14.4486 3.33778 14.4019 3.34544C14.369 3.34927 14.2319 3.36611 14.1982 3.373C13.6183 3.00815 12.9911 2.72469 12.3341 2.53056C12.5738 2.55966 12.7936 2.60255 12.9889 2.64927L12.9904 2.65233ZM11.003 2.52751C11.6739 2.52751 12.3448 2.72279 12.874 2.93953H12.7974C12.249 2.95561 11.6425 3.19074 10.9946 3.6357L10.9816 3.64488C10.981 3.64461 10.9803 3.64447 10.9797 3.64447C10.979 3.64447 10.9783 3.64461 10.9777 3.64488C10.4549 3.26994 9.84835 3.02834 9.21089 2.94106L9.1573 2.93646C9.68344 2.71819 10.3429 2.52597 11.0015 2.52444L11.003 2.52751ZM9.0118 2.6531C9.20786 2.60562 9.4269 2.5635 9.66891 2.52827C9.18871 2.66153 8.563 2.9112 7.80404 3.37072C7.77111 3.36459 7.63401 3.34773 7.60031 3.34314C7.55359 3.33625 7.5061 3.33165 7.45862 3.32706C7.45862 3.32629 7.87067 2.92115 9.0118 2.65003V2.6531ZM7.35754 3.41129C8.06519 3.37606 8.81264 3.98569 9.45979 4.73853C9.90858 5.26084 10.3444 6.41346 10.3444 6.41346H10.2486C9.01638 3.46798 7.25033 3.51009 7.25033 3.51009C7.25033 3.51009 7.34835 3.4159 7.35754 3.40824V3.41129ZM7.9442 3.74828C7.99857 3.77815 8.05138 3.80801 8.10193 3.83864C7.66094 3.94966 7.23875 4.12514 6.849 4.35943C6.50466 4.54964 6.19182 4.79195 5.92156 5.0778C5.91749 5.08155 5.91508 5.08678 5.91486 5.0923C5.91465 5.09783 5.91664 5.10322 5.9204 5.10728C5.92416 5.11134 5.92938 5.11376 5.93491 5.11398C5.94044 5.11419 5.94584 5.1122 5.9499 5.10844C6.2034 4.90625 6.72953 4.51566 7.15994 4.37474C7.75118 4.18175 8.10271 4.05922 8.38531 4.19018C8.66791 4.32114 8.97578 4.59914 9.14657 4.7929C9.29335 4.96149 9.42315 5.14414 9.5341 5.3382C9.62983 5.50898 9.78988 5.89115 9.60148 6.16073C9.50116 6.30394 9.29514 6.4349 9.00948 6.48008C6.91486 6.80787 5.48655 8.24844 5.45898 8.27678C5.43141 8.30512 5.42756 8.31354 5.42756 8.31354C5.36247 7.86092 5.09364 7.55764 4.84704 7.43587C4.21904 7.12493 3.57649 7.42668 3.54968 7.43587C5.01706 4.64509 7.9442 3.74521 7.9442 3.74521V3.74828ZM1.82422 9.59177C1.94217 9.4386 2.01797 9.4386 2.06239 9.4386C2.16425 9.434 2.09841 9.66834 2.08233 9.76943C1.98756 10.4305 1.93868 11.0974 1.93604 11.7653C1.93604 11.7653 1.38613 11.6887 1.74532 12.9715C2.13897 14.3807 2.40856 14.095 2.40856 14.095C2.45528 14.5109 2.87421 15.7087 3.85528 16.8774C0.0298229 13.9227 1.43134 10.1064 1.82422 9.5887V9.59177ZM2.30135 12.5549C2.30135 12.5549 2.08231 10.801 2.42618 9.34975C2.4389 9.28652 2.47259 9.22945 2.5218 9.18775C2.571 9.14605 2.63283 9.12217 2.69729 9.11999H2.70571C2.70571 9.11999 1.36395 13.4088 4.49171 17.1921C4.43427 17.1347 2.59544 15.3671 2.30135 12.5518V12.5549ZM16.5547 17.7527C14.9871 18.9775 13.0559 19.6445 11.0666 19.6482H10.9349C8.94567 19.6438 7.01463 18.9768 5.44671 17.7527C3.55122 16.2777 2.91175 13.9479 2.77006 13.1951C2.47138 11.6021 2.57553 10.2987 2.80529 9.41945C2.90485 9.03652 3.06338 8.63137 3.31611 8.31277C3.64313 7.90227 3.9127 7.64572 4.45263 7.7315C4.99256 7.81728 5.04847 8.33345 5.06532 8.505C5.06566 8.53809 5.05301 8.57 5.03009 8.59386C4.20603 9.74264 3.38732 11.364 3.75876 13.853C3.86292 14.8057 4.1417 15.5792 4.35996 15.9622C5.11969 17.2473 6.08927 18.1012 7.90205 18.9329C8.8674 19.3054 9.88908 19.511 10.9234 19.541C6.00045 19.2982 4.337 15.5463 4.31479 15.4873C4.69772 16.0449 5.05612 16.5243 5.47887 16.9133C5.80806 17.2223 6.1885 17.4716 6.60316 17.6501C6.71447 17.6981 6.83088 17.7423 6.9524 17.7826C8.04757 18.1456 8.9934 17.6455 9.55631 17.3231C9.73616 17.2197 9.92387 17.1306 10.1177 17.0566C10.1674 17.1183 10.2374 17.1604 10.3153 17.1753H10.3206C10.5226 17.2141 10.7277 17.2335 10.9333 17.2335H10.9969H11.0581C11.2638 17.2335 11.4689 17.214 11.6708 17.1753H11.6754C11.7533 17.1609 11.8234 17.119 11.873 17.0573C12.067 17.131 12.2547 17.2202 12.4344 17.3239C12.995 17.6455 13.9401 18.1449 15.0383 17.7834C15.1601 17.7428 15.2757 17.6991 15.3876 17.6501C15.8019 17.4714 16.1823 17.2224 16.5118 16.9141C16.9338 16.5251 17.2945 16.0456 17.6759 15.4881C17.6529 15.5471 15.991 19.299 11.0673 19.5418C12.1016 19.5117 13.1233 19.306 14.0887 18.9337C15.9014 18.102 16.8702 17.2488 17.63 15.9637C17.8513 15.5808 18.1255 14.8072 18.2312 13.8545C18.6018 11.3655 17.7839 9.74647 16.9591 8.59539C16.9363 8.57112 16.9237 8.53904 16.9239 8.50577C16.9445 8.33498 17.0005 7.81651 17.5366 7.73227C18.0727 7.64802 18.3468 7.90304 18.6731 8.31431C18.9258 8.63214 19.0851 9.03959 19.1847 9.42098C19.4144 10.3002 19.5186 11.6029 19.2191 13.1959C19.0889 13.9495 18.4494 16.2754 16.5547 17.7497V17.7527ZM17.5097 17.1921C20.6367 13.4126 19.2957 9.11922 19.2957 9.11922H19.3034C19.3679 9.12137 19.4299 9.14522 19.4792 9.18691C19.5285 9.2286 19.5624 9.28569 19.5752 9.34898C19.9183 10.7995 19.7001 12.5541 19.7001 12.5541C19.406 15.3671 17.5672 17.1347 17.5097 17.1891V17.1921ZM18.1454 16.8751C19.1257 15.7064 19.5461 14.5078 19.5928 14.0927C19.5928 14.0927 19.8625 14.3776 20.2553 12.9692C20.6153 11.6833 20.0646 11.7622 20.0646 11.7622C20.062 11.0946 20.0131 10.428 19.9183 9.76713C19.9023 9.66681 19.8372 9.43094 19.9383 9.43553C19.9835 9.43553 20.0593 9.43553 20.1764 9.5887C20.5693 10.1064 21.9716 13.9219 18.1454 16.872V16.8751Z" fill="white"/>
<path opacity="0.3" d="M12.4583 7.58817C12.0416 7.73062 11.5086 7.86004 11.0246 7.81332C10.4808 7.76048 9.84054 7.63719 9.11987 7.63029C9.53929 7.56609 9.96591 7.56428 10.3859 7.62493H10.3927C10.5954 7.65614 10.8004 7.66998 11.0054 7.66629C11.2084 7.67037 11.4113 7.65679 11.612 7.62569H11.6196C11.897 7.58331 12.1782 7.57073 12.4583 7.58817Z" fill="white"/>
</svg>
