<svg width="18" height="17" viewBox="0 0 18 17" fill="none" xmlns="http://www.w3.org/2000/svg">
<path d="M7.8699 10.37C7.51501 10.201 7.21559 9.93449 7.00662 9.60156C6.79766 9.26864 6.68787 8.88309 6.68997 8.49002C6.6926 7.93653 6.91358 7.40646 7.30496 7.01508C7.69634 6.62369 8.22657 6.40265 8.78006 6.40002C9.33355 6.40265 9.86353 6.62369 10.2549 7.01508C10.6463 7.40646 10.8673 7.93653 10.8699 8.49002C10.872 8.88309 10.7622 9.26864 10.5533 9.60156C10.3443 9.93449 10.0449 10.201 9.68997 10.37" stroke="white" stroke-linecap="round" stroke-linejoin="round"/>
<path d="M7.0498 12.18C6.37438 11.8537 5.80441 11.3441 5.40479 10.7093C5.00516 10.0745 4.79224 9.34013 4.79004 8.59003C4.79004 7.52916 5.21128 6.51174 5.96143 5.7616C6.71157 5.01145 7.72917 4.59003 8.79004 4.59003C9.85091 4.59003 10.8683 5.01145 11.6184 5.7616C12.3686 6.51174 12.79 7.52916 12.79 8.59003C12.7888 9.33907 12.577 10.0727 12.1792 10.7074C11.7814 11.3421 11.2136 11.8523 10.54 12.18" stroke="white" stroke-linecap="round" stroke-linejoin="round"/>
<path d="M6.21997 13.98C5.22405 13.4984 4.38416 12.7455 3.79688 11.808C3.2096 10.8705 2.89868 9.78627 2.89991 8.67999C2.89991 7.12052 3.51936 5.62493 4.62207 4.52222C5.72479 3.4195 7.22056 2.79999 8.78003 2.79999C10.3404 2.79999 11.8369 3.41918 12.9412 4.52161C14.0455 5.62403 14.6673 7.1196 14.6699 8.67999C14.6691 9.78709 14.3563 10.8715 13.7673 11.809C13.1784 12.7464 12.3369 13.4988 11.3398 13.98" stroke="white" stroke-linecap="round" stroke-linejoin="round"/>
<path d="M5.3899 15.79C4.07534 15.1523 2.9667 14.1578 2.19044 12.92C1.41417 11.6822 1.00167 10.2511 1.00001 8.79001C0.998692 7.76748 1.19897 6.75473 1.58936 5.80966C1.97976 4.86459 2.55258 4.00576 3.27515 3.28226C3.99772 2.55876 4.85573 1.98478 5.8003 1.59317C6.74486 1.20156 7.75751 0.999999 8.78004 1C9.80256 0.999999 10.815 1.20156 11.7595 1.59317C12.7041 1.98478 13.5621 2.55876 14.2847 3.28226C15.0072 4.00576 15.5801 4.86459 15.9705 5.80966C16.3609 6.75473 16.5611 7.76748 16.5598 8.79001C16.5582 10.2511 16.1457 11.6822 15.3694 12.92C14.5931 14.1578 13.4845 15.1523 12.1699 15.79" stroke="white" stroke-linecap="round" stroke-linejoin="round"/>
<path d="M9.60989 8.47003C9.6113 8.6272 9.56267 8.78073 9.47098 8.90839C9.37928 9.03604 9.24928 9.13118 9.09988 9.18002C9.02031 9.21185 8.93557 9.22882 8.84988 9.23004C8.76409 9.22978 8.67918 9.21278 8.59988 9.18002C8.45049 9.13118 8.32049 9.03604 8.22879 8.90839C8.13709 8.78073 8.08846 8.6272 8.08987 8.47003C8.08987 8.37023 8.10954 8.27141 8.14773 8.1792C8.18593 8.08699 8.24196 8.00319 8.31253 7.93262C8.3831 7.86204 8.4669 7.80608 8.55911 7.76788C8.65132 7.72969 8.75008 7.71002 8.84988 7.71002C8.94969 7.71002 9.04869 7.72969 9.1409 7.76788C9.23311 7.80608 9.31666 7.86204 9.38724 7.93262C9.45781 8.00319 9.51384 8.08699 9.55203 8.1792C9.59023 8.27141 9.60989 8.37023 9.60989 8.47003Z" fill="white"/>
</svg>
