<svg width="22" height="22" viewBox="0 0 22 22" fill="none" xmlns="http://www.w3.org/2000/svg">
<circle cx="11" cy="11" r="11" fill="#DBFFE5"/>
<path d="M9.66667 5V6.01111C9.66667 6.41559 9.66667 6.61783 9.73933 6.77233C9.80324 6.90822 9.90523 7.01871 10.0307 7.08795C10.1733 7.16667 10.36 7.16667 10.7333 7.16667H11.2667C11.64 7.16667 11.8267 7.16667 11.9693 7.08795C12.0948 7.01871 12.1968 6.90822 12.2607 6.77233C12.3333 6.61783 12.3333 6.41559 12.3333 6.01111V5M9.13333 18H12.8667C13.6134 18 13.9868 18 14.272 17.8426C14.5229 17.7041 14.7268 17.4831 14.8547 17.2113C15 16.9023 15 16.4979 15 15.6889V7.31111C15 6.50215 15 6.09766 14.8547 5.78868C14.7268 5.51689 14.5229 5.29592 14.272 5.15744C13.9868 5 13.6134 5 12.8667 5H9.13333C8.3866 5 8.01323 5 7.72801 5.15744C7.47713 5.29592 7.27316 5.51689 7.14532 5.78868C7 6.09766 7 6.50215 7 7.31111V15.6889C7 16.4979 7 16.9023 7.14532 17.2113C7.27316 17.4831 7.47713 17.7041 7.72801 17.8426C8.01323 18 8.3866 18 9.13333 18Z" stroke="#295A37" stroke-linecap="round" stroke-linejoin="round"/>
</svg>
