<svg width="22" height="22" viewBox="0 0 22 22" fill="none" xmlns="http://www.w3.org/2000/svg">
<path d="M10.9983 1.36276e-07C13.174 -0.000342258 15.301 0.644523 17.1102 1.85309C18.9194 3.06165 20.3296 4.77963 21.1624 6.78969C21.9951 8.79975 22.2131 11.0116 21.7887 13.1456C21.3643 15.2795 20.3167 17.2397 18.7782 18.7782C17.2397 20.3166 15.2795 21.3643 13.1456 21.7887C11.0116 22.2131 8.79975 21.9951 6.78969 21.1623C4.77963 20.3295 3.06169 18.9194 1.85313 17.1102C0.644565 15.301 -0.000342258 13.174 1.36267e-07 10.9983C0.000459147 8.08149 1.15938 5.28429 3.22185 3.22181C5.28433 1.15933 8.08149 0.000459147 10.9983 1.36276e-07" fill="#DEDEDE"/>
<path d="M3 10.3308C3.15441 9.68091 3.28073 9.09132 3.44356 8.51299C3.46602 8.43438 3.66253 8.36001 3.77904 8.3586C4.88376 8.34737 5.98991 8.35158 7.09464 8.35158C8.35799 8.35158 9.62134 8.33895 10.8847 8.3586C11.1077 8.37535 11.3315 8.33624 11.5356 8.24483C11.7398 8.15341 11.9179 8.01257 12.054 7.83502C12.5986 7.16264 12.7558 7.15982 13.3019 7.82659C13.4395 8.00893 13.6208 8.15367 13.8291 8.2474C14.0374 8.34112 14.2659 8.38081 14.4936 8.36282C15.7682 8.32913 17.0442 8.3628 18.3202 8.34596C18.5518 8.34596 18.6796 8.40071 18.7273 8.63935C18.8382 9.18259 18.9631 9.72442 19.0964 10.3238H18.6445C16.8716 10.3238 15.0972 10.314 13.3243 10.3308C13.1562 10.343 12.9878 10.3124 12.8346 10.242C12.6815 10.1716 12.5486 10.0635 12.4484 9.92795C11.9038 9.24013 11.7059 9.04782 11.0068 9.89145C10.7261 10.234 10.4004 10.3365 9.96524 10.3322C7.81474 10.3126 5.66565 10.3238 3.51515 10.3238L3 10.3308Z" fill="#585858"/>
<path d="M18.9985 12.4951C18.7683 13.1605 18.5773 13.7458 18.3527 14.32C18.3148 14.4126 18.1043 14.4828 17.9723 14.4828C15.885 14.4926 13.7963 14.4828 11.7076 14.4828C11.5014 14.4694 11.2946 14.4694 11.0885 14.4828C10.3066 14.5895 9.67076 14.407 9.21455 13.7009C9.17926 13.6342 9.12665 13.5782 9.06228 13.5387C8.99792 13.4993 8.92415 13.4779 8.84868 13.4767C8.7732 13.4756 8.69882 13.4947 8.63329 13.5322C8.56775 13.5697 8.51349 13.6241 8.47619 13.6897C7.98208 14.4098 7.30968 14.553 6.49131 14.4912C5.6954 14.4322 4.88968 14.4729 4.08816 14.4828C3.89023 14.4828 3.7751 14.4336 3.71053 14.2371C3.52805 13.6756 3.33153 13.1141 3.11536 12.4881H3.58983C5.08339 12.4881 6.57694 12.4783 8.0705 12.4881C8.52951 12.4881 8.90292 12.3716 9.17665 11.9898C9.25709 11.8833 9.34579 11.7833 9.44193 11.6908C9.72268 11.396 10.0133 11.3651 10.2351 11.702C10.6871 12.3913 11.3033 12.5148 12.0767 12.4993C14.2118 12.4544 16.3496 12.4839 18.4875 12.4839L18.9985 12.4951Z" fill="#585858"/>
<path d="M4.64941 6.20254C7.97202 1.77661 14.5204 2.09667 17.4233 6.18571C16.8744 6.18571 16.3438 6.19833 15.8146 6.17588C15.6737 6.14557 15.5466 6.07017 15.4524 5.9611C15.27 5.78423 15.1183 5.57648 14.9415 5.39961C14.7084 5.15677 14.46 5.15679 14.2087 5.3856C14.1894 5.40074 14.172 5.41816 14.1568 5.43752C13.7203 6.11972 13.0914 6.24187 12.3137 6.22642C9.92738 6.1801 7.52984 6.20956 5.1365 6.20956L4.64941 6.20254Z" fill="#585858"/>
<path d="M16.9098 16.4497C13.6911 19.959 8.0987 19.7345 5.22949 16.4652C5.70676 16.4357 5.93134 16.0764 6.20226 15.7732C6.57565 15.3521 6.84097 15.3254 7.16944 15.7732C7.55968 16.3136 8.03274 16.475 8.68968 16.4596C11.2767 16.4231 13.8638 16.4441 16.4508 16.4441L16.9098 16.4497Z" fill="#585858"/>
</svg>
