<svg width="16" height="16" viewBox="0 0 16 16" fill="none" xmlns="http://www.w3.org/2000/svg">
<path d="M7.99874 9.91097e-08C9.5811 -0.000248915 11.128 0.468744 12.4438 1.3477C13.7596 2.22665 14.7851 3.4761 15.3908 4.93796C15.9965 6.39982 16.155 8.00845 15.8463 9.56041C15.5377 11.1124 14.7758 12.5379 13.6569 13.6568C12.538 14.7757 11.1124 15.5377 9.56041 15.8463C8.00845 16.155 6.39982 15.9964 4.93796 15.3908C3.4761 14.7851 2.22669 13.7596 1.34773 12.4438C0.468774 11.128 -0.000248915 9.5811 9.91032e-08 7.99874C0.000333925 5.87745 0.843183 3.84312 2.34317 2.34314C3.84315 0.843153 5.87745 0.000333925 7.99874 9.91097e-08Z" fill="url(#paint0_linear_646_3954)"/>
<path fill-rule="evenodd" clip-rule="evenodd" d="M12.3039 1.55709C11.0295 0.7058 9.53134 0.251569 7.99878 0.25181C5.94426 0.252133 3.97399 1.06842 2.52122 2.52119C1.06845 3.97396 0.252133 5.94426 0.25181 7.99878C0.251569 9.53133 0.705829 11.0295 1.55712 12.3039C2.40841 13.5783 3.61849 14.5715 5.03434 15.1581C6.45019 15.7447 8.00819 15.8983 9.5113 15.5994C11.0144 15.3004 12.3951 14.5625 13.4788 13.4788C14.5625 12.3951 15.3004 11.0144 15.5994 9.5113C15.8983 8.00818 15.7448 6.45018 15.1582 5.03434C14.5716 3.61849 13.5783 2.40838 12.3039 1.55709ZM12.4438 1.3477C11.128 0.468744 9.5811 -0.000248816 7.99874 9.90308e-08C5.87745 0.000334024 3.84315 0.843153 2.34317 2.34314C0.843183 3.84312 0.000334024 5.87745 9.90243e-08 7.99874C-0.000248816 9.5811 0.468775 11.128 1.34773 12.4438C2.22669 13.7596 3.4761 14.7851 4.93796 15.3908C6.39982 15.9964 8.00845 16.155 9.56041 15.8463C11.1124 15.5377 12.538 14.7757 13.6569 13.6568C14.7758 12.5379 15.5377 11.1124 15.8463 9.56041C16.155 8.00845 15.9965 6.39982 15.3908 4.93796C14.7851 3.4761 13.7596 2.22666 12.4438 1.3477Z" fill="white"/>
<path d="M0.780762 7.39789C0.919257 6.81495 1.03256 6.28612 1.17861 5.76739C1.19875 5.69688 1.37501 5.63017 1.47951 5.62891C2.47038 5.61884 3.46253 5.62261 4.4534 5.62261C5.58654 5.62261 6.71969 5.61129 7.85283 5.62891C8.0529 5.64394 8.25356 5.60886 8.43668 5.52686C8.61979 5.44487 8.77959 5.31854 8.90163 5.15929C9.39014 4.55621 9.53114 4.55368 10.0209 5.15173C10.1443 5.31528 10.3069 5.4451 10.4938 5.52917C10.6806 5.61323 10.8856 5.64883 11.0898 5.6327C12.2331 5.60248 13.3775 5.63268 14.522 5.61757C14.7298 5.61757 14.8443 5.66669 14.8872 5.88072C14.9866 6.36798 15.0987 6.85397 15.2183 7.39158H14.8129C13.2227 7.39158 11.6312 7.38278 10.041 7.39789C9.89024 7.4088 9.73915 7.38139 9.60179 7.31821C9.46443 7.25503 9.34525 7.15812 9.2554 7.03652C8.76689 6.41959 8.58939 6.2471 7.96238 7.00379C7.71057 7.31099 7.41845 7.40292 7.02815 7.39915C5.09928 7.38152 3.17169 7.39158 1.24282 7.39158L0.780762 7.39789Z" fill="white"/>
<path d="M15.1302 9.33955C14.9237 9.93634 14.7525 10.4614 14.551 10.9763C14.517 11.0594 14.3282 11.1224 14.2098 11.1224C12.3376 11.1312 10.4642 11.1224 8.5907 11.1224C8.40581 11.1104 8.22033 11.1104 8.03544 11.1224C7.33415 11.218 6.76382 11.0544 6.35463 10.4211C6.32297 10.3612 6.27579 10.311 6.21806 10.2756C6.16033 10.2402 6.09416 10.221 6.02646 10.22C5.95876 10.219 5.89205 10.2362 5.83327 10.2698C5.77449 10.3034 5.72583 10.3521 5.69237 10.411C5.24918 11.0569 4.64608 11.1853 3.91205 11.1299C3.19817 11.077 2.47549 11.1135 1.75658 11.1224C1.57905 11.1224 1.47579 11.0783 1.41787 10.902C1.25419 10.3984 1.07793 9.89479 0.884033 9.33325H1.30961C2.64924 9.33325 3.98885 9.32444 5.32848 9.33325C5.74019 9.33325 6.07512 9.22874 6.32063 8.88628C6.39279 8.79078 6.47234 8.70113 6.55858 8.61812C6.81039 8.35372 7.07103 8.32603 7.26996 8.6282C7.67537 9.24639 8.22808 9.35718 8.92181 9.34333C10.8368 9.30304 12.7544 9.32947 14.6719 9.32947L15.1302 9.33955Z" fill="white"/>
<path d="M2.26025 3.69523C5.24042 -0.274552 11.1139 0.0125269 13.7176 3.68014C13.2253 3.68014 12.7494 3.69146 12.2747 3.67132C12.1484 3.64413 12.0343 3.5765 11.9499 3.47868C11.7862 3.32004 11.6502 3.1337 11.4916 2.97506C11.2826 2.75724 11.0597 2.75726 10.8344 2.96249C10.817 2.97607 10.8014 2.9917 10.7878 3.00905C10.3962 3.62095 9.83216 3.7305 9.13464 3.71665C6.99426 3.67511 4.84382 3.70153 2.69714 3.70153L2.26025 3.69523Z" fill="white"/>
<path d="M13.2568 12.8865C10.3698 16.0341 5.35377 15.8327 2.78027 12.9003C3.20835 12.8739 3.40979 12.5516 3.65279 12.2796C3.98769 11.9019 4.22567 11.878 4.52029 12.2796C4.8703 12.7644 5.29461 12.9091 5.88385 12.8953C8.20428 12.8626 10.5247 12.8814 12.8451 12.8814L13.2568 12.8865Z" fill="white"/>
<defs>
<linearGradient id="paint0_linear_646_3954" x1="8" y1="0" x2="8" y2="16" gradientUnits="userSpaceOnUse">
<stop stop-color="#FFC6F2"/>
<stop offset="1" stop-color="#FF00C7"/>
</linearGradient>
</defs>
</svg>
