<svg width="14" height="14" viewBox="0 0 14 14" fill="none" xmlns="http://www.w3.org/2000/svg">
<path d="M10.0406 5.33218C10.224 5.12579 10.2055 4.80975 9.99907 4.6263C9.79267 4.44284 9.47664 4.46143 9.29318 4.66782L10.0406 5.33218ZM6.11133 9L5.73764 9.3322C5.83253 9.43894 5.96853 9.5 6.11134 9.5C6.25416 9.5 6.39015 9.43892 6.48503 9.33218L6.11133 9ZM4.70702 6.6678C4.52355 6.46142 4.20751 6.44284 4.00113 6.62632C3.79475 6.80979 3.77618 7.12582 3.95965 7.3322L4.70702 6.6678ZM1.14532 1.72803L0.699821 1.50103L1.14532 1.72803ZM1.72786 1.14532L1.50087 0.699821L1.72786 1.14532ZM1.72786 12.8547L1.95486 12.4092L1.72786 12.8547ZM1.14532 12.272L0.699821 12.499L1.14532 12.272ZM12.8548 12.272L12.4093 12.045L12.8548 12.272ZM12.2719 12.8547L12.0449 12.4092L12.2719 12.8547ZM12.8548 1.72803L12.4093 1.95502L12.8548 1.72803ZM12.2719 1.14532L12.4989 0.699821L12.2719 1.14532ZM9.29318 4.66782L5.73762 8.66782L6.48503 9.33218L10.0406 5.33218L9.29318 4.66782ZM6.48501 8.6678L4.70702 6.6678L3.95965 7.3322L5.73764 9.3322L6.48501 8.6678ZM12.5 3.1333V10.8666H13.5V3.1333H12.5ZM10.8668 12.5H3.13346V13.5H10.8668V12.5ZM1.5 10.8666V3.1333H0.5V10.8666H1.5ZM3.13346 1.5H10.8668V0.5H3.13346V1.5ZM1.5 3.1333C1.5 2.75168 1.50039 2.49555 1.5165 2.29831C1.53214 2.10691 1.56006 2.0154 1.59083 1.95502L0.699821 1.50103C0.585261 1.72587 0.540519 1.96362 0.519826 2.21688C0.499611 2.46428 0.5 2.76818 0.5 3.1333H1.5ZM3.13346 0.5C2.76834 0.5 2.46437 0.499611 2.21689 0.519825C1.9636 0.540513 1.72574 0.585244 1.50087 0.699821L1.95486 1.59083C2.0152 1.56008 2.10677 1.53215 2.2983 1.51651C2.49563 1.50039 2.75185 1.5 3.13346 1.5V0.5ZM1.59083 1.95502C1.67079 1.79809 1.79819 1.67066 1.95486 1.59083L1.50087 0.699821C1.15578 0.875655 0.875523 1.1562 0.699821 1.50103L1.59083 1.95502ZM3.13346 12.5C2.75186 12.5 2.49563 12.4996 2.29831 12.4835C2.10679 12.4678 2.01521 12.4399 1.95486 12.4092L1.50087 13.3002C1.72573 13.4147 1.96359 13.4595 2.21688 13.4802C2.46436 13.5004 2.76833 13.5 3.13346 13.5V12.5ZM0.5 10.8666C0.5 11.2318 0.499611 11.5357 0.519826 11.7831C0.540517 12.0364 0.585255 12.2742 0.699821 12.499L1.59083 12.045C1.56007 11.9847 1.53215 11.8931 1.51651 11.7017C1.50039 11.5044 1.5 11.2483 1.5 10.8666H0.5ZM1.95486 12.4092C1.79813 12.3293 1.67076 12.2019 1.59083 12.045L0.699821 12.499C0.875551 12.8439 1.15583 13.1244 1.50087 13.3002L1.95486 12.4092ZM12.5 10.8666C12.5 11.2483 12.4996 11.5045 12.4836 11.7018C12.4679 11.8932 12.44 11.9847 12.4093 12.045L13.3003 12.499C13.4149 12.2741 13.4596 12.0363 13.4803 11.783C13.5004 11.5356 13.5 11.2317 13.5 10.8666H12.5ZM10.8668 13.5C11.2319 13.5 11.5358 13.5004 11.7831 13.4802C12.0364 13.4595 12.274 13.4147 12.4989 13.3002L12.0449 12.4092C11.9845 12.4399 11.893 12.4678 11.7017 12.4835C11.5045 12.4996 11.2484 12.5 10.8668 12.5V13.5ZM12.4093 12.045C12.3296 12.2016 12.2019 12.3291 12.0449 12.4092L12.4989 13.3002C12.8436 13.1245 13.1244 12.8442 13.3003 12.499L12.4093 12.045ZM13.5 3.1333C13.5 2.76823 13.5004 2.46433 13.4803 2.21696C13.4596 1.96373 13.4149 1.72593 13.3003 1.50103L12.4093 1.95502C12.4401 2.01534 12.4679 2.10681 12.4836 2.29823C12.4996 2.4955 12.5 2.75163 12.5 3.1333H13.5ZM10.8668 1.5C11.2484 1.5 11.5045 1.50039 11.7017 1.5165C11.893 1.53214 11.9845 1.56005 12.0449 1.59083L12.4989 0.699821C12.274 0.585273 12.0364 0.540523 11.7831 0.519827C11.5358 0.499611 11.2319 0.5 10.8668 0.5V1.5ZM13.3003 1.50103C13.1244 1.15586 12.8436 0.875485 12.4989 0.699821L12.0449 1.59083C12.2019 1.67083 12.3295 1.79843 12.4093 1.95502L13.3003 1.50103Z" fill="#0071E3"/>
</svg>
