<svg width="7" height="6" viewBox="0 0 7 6" fill="none" xmlns="http://www.w3.org/2000/svg">
<path d="M6.70725 1.33218C6.89071 1.12579 6.87212 0.809754 6.66573 0.626295C6.45934 0.442836 6.1433 0.461427 5.95985 0.667818L6.70725 1.33218ZM2.77799 5L2.40431 5.3322C2.4992 5.43894 2.6352 5.5 2.77801 5.5C2.92082 5.5 3.05682 5.43892 3.1517 5.33218L2.77799 5ZM1.37368 2.6678C1.19021 2.46142 0.874176 2.44284 0.667795 2.62632C0.461415 2.80979 0.442844 3.12582 0.626315 3.3322L1.37368 2.6678ZM5.95985 0.667818L2.40429 4.66782L3.1517 5.33218L6.70725 1.33218L5.95985 0.667818ZM3.15168 4.6678L1.37368 2.6678L0.626315 3.3322L2.40431 5.3322L3.15168 4.6678Z" fill="#0071E3"/>
</svg>
