<svg xmlns="http://www.w3.org/2000/svg" xmlns:xlink="http://www.w3.org/1999/xlink" viewBox="0 0 2924.73 2708.63">
  <defs>
    <style>
      .cls-1{isolation:isolate;}.cls-2{opacity:0.75;mix-blend-mode:multiply;}.cls-10,.cls-11,.cls-12,.cls-13,.cls-14,.cls-15,.cls-16,.cls-17,.cls-3,.cls-4,.cls-5,.cls-6,.cls-7,.cls-8,.cls-9{stroke:#fff;stroke-miterlimit:10;stroke-width:2px;}.cls-3{fill:url(#linear-gradient);}.cls-4{fill:url(#linear-gradient-2);}.cls-5{fill:url(#linear-gradient-3);}.cls-6{fill:url(#linear-gradient-4);}.cls-7{fill:url(#linear-gradient-5);}.cls-8{fill:url(#linear-gradient-6);}.cls-9{fill:url(#linear-gradient-7);}.cls-10{fill:url(#linear-gradient-8);}.cls-11{fill:url(#linear-gradient-9);}.cls-12{fill:url(#linear-gradient-10);}.cls-13{fill:url(#linear-gradient-11);}.cls-14{fill:url(#linear-gradient-12);}.cls-15{fill:url(#linear-gradient-13);}.cls-16{fill:url(#linear-gradient-14);}.cls-17{fill:url(#linear-gradient-15);}
    </style>
    <linearGradient id="linear-gradient" x1="2314.41" y1="420.35" x2="-173.66" y2="1713.27" gradientUnits="userSpaceOnUse">
      <stop offset="0" stop-color="aqua"/>
      <stop offset="1" stop-color="#2800ff"/>
    </linearGradient>
    <linearGradient id="linear-gradient-2" x1="2346.22" y1="481.57" x2="-141.85" y2="1774.49" xlink:href="#linear-gradient"/>
    <linearGradient id="linear-gradient-3" x1="2379.99" y1="546.55" x2="-108.09" y2="1839.47" xlink:href="#linear-gradient"/>
    <linearGradient id="linear-gradient-4" x1="2414.85" y1="613.65" x2="-73.22" y2="1906.57" xlink:href="#linear-gradient"/>
    <linearGradient id="linear-gradient-5" x1="2446.53" y1="674.62" x2="-41.54" y2="1967.54" xlink:href="#linear-gradient"/>
    <linearGradient id="linear-gradient-6" x1="2483.65" y1="746.04" x2="-4.42" y2="2038.96" xlink:href="#linear-gradient"/>
    <linearGradient id="linear-gradient-7" x1="2500.37" y1="778.21" x2="12.3" y2="2071.13" xlink:href="#linear-gradient"/>
    <linearGradient id="linear-gradient-8" x1="2532.51" y1="840.07" x2="44.44" y2="2132.99" xlink:href="#linear-gradient"/>
    <linearGradient id="linear-gradient-9" x1="2566.62" y1="905.71" x2="78.55" y2="2198.63" xlink:href="#linear-gradient"/>
    <linearGradient id="linear-gradient-10" x1="2601.83" y1="973.47" x2="113.76" y2="2266.39" xlink:href="#linear-gradient"/>
    <linearGradient id="linear-gradient-11" x1="2618.55" y1="1005.64" x2="130.48" y2="2298.56" xlink:href="#linear-gradient"/>
    <linearGradient id="linear-gradient-12" x1="2645.87" y1="1058.21" x2="157.8" y2="2351.13" xlink:href="#linear-gradient"/>
    <linearGradient id="linear-gradient-13" x1="2669.62" y1="1103.92" x2="181.55" y2="2396.84" xlink:href="#linear-gradient"/>
    <linearGradient id="linear-gradient-14" x1="2703.39" y1="1168.9" x2="215.32" y2="2461.82" xlink:href="#linear-gradient"/>
    <linearGradient id="linear-gradient-15" x1="2736.05" y1="1231.77" x2="247.98" y2="2524.68" xlink:href="#linear-gradient"/>
  </defs>
  <g class="cls-1">
    <g id="Layer_2" data-name="Layer 2">
      <path class="cls-3" d="M596.22,1373.25q-1.89,26.13-19.29,41.13t-45.84,15q-31.13,0-49-21t-17.84-57.52V1341q0-23.34,8.22-41.12T496,1272.61q15.28-9.49,35.51-9.5,28,0,45.13,15t19.78,42.13H563.1q-1.23-15.67-8.73-22.73t-22.84-7.06q-16.66,0-24.95,12t-8.5,37.07v12.22q0,26.24,7.94,38.35t25.07,12.11q15.43,0,23.06-7.06t8.72-21.84Z"/>
      <path class="cls-4" d="M751,1349.91q0,23.91-8.44,41.91t-24.18,27.78q-15.72,9.78-36.06,9.78-20.13,0-35.9-9.67T622,1392.09q-8.67-17.94-8.78-41.29v-8q0-23.9,8.62-42.07t24.34-27.9q15.72-9.72,36-9.72t36,9.72q15.72,9.74,24.34,27.9t8.61,42Zm-33.78-7.33q0-25.45-9.12-38.68t-26-13.23q-16.78,0-25.89,13.06T647,1342v7.89q0,24.79,9.12,38.46T682.36,1402q16.77,0,25.78-13.17t9.12-38.4Z"/>
      <path class="cls-5" d="M906.87,1427.16H873.53l-64.91-106.48v106.48H775.28V1265.33h33.34l65,106.7v-106.7h33.23Z"/>
      <path class="cls-6" d="M1064,1406.71q-9,10.79-25.45,16.73a106.72,106.72,0,0,1-36.46,5.94q-21,0-36.84-9.17a61.08,61.08,0,0,1-24.45-26.62q-8.62-17.44-8.84-41v-11q0-24.24,8.17-42t23.56-27.12q15.4-9.39,36.07-9.39,28.79,0,45,13.72t19.23,40h-32.45q-2.22-13.89-9.84-20.34t-21-6.44q-17,0-25.9,12.78t-9,38v10.34q0,25.44,9.67,38.45t28.34,13q18.78,0,26.79-8V1366.7h-30.34v-24.57H1064Z"/>
      <path class="cls-7" d="M1151,1367.92h-26.56v59.24H1091V1265.33h60.13q28.68,0,44.24,12.78t15.56,36.13q0,16.56-7.17,27.62t-21.73,17.61l35,66.13v1.56h-35.79Zm-26.56-27h26.89q12.57,0,19.45-6.39t6.9-17.62q0-11.45-6.51-18t-19.95-6.56h-26.78Z"/>
      <path class="cls-8" d="M1327.67,1393.82h-58.46l-11.11,33.34h-35.46l60.24-161.83h30.9l60.57,161.83H1338.9Zm-49.46-27h40.46l-20.34-60.58Z"/>
      <path class="cls-9" d="M1498,1292.34h-49.57v134.82H1415V1292.34h-48.9v-27H1498Z"/>
      <path class="cls-10" d="M1639.44,1265.33v106.59q0,26.57-16.62,42t-45.4,15.45q-28.35,0-45-15t-17-41.24V1265.33h33.34v106.81q0,15.9,7.62,23.18t21.06,7.28q28.11,0,28.56-29.57v-107.7Z"/>
      <path class="cls-11" d="M1700.12,1400.37h70.8v26.79H1666.78V1265.33h33.34Z"/>
      <path class="cls-12" d="M1883.52,1393.82h-58.47l-11.11,33.34h-35.46l60.24-161.83h30.9l60.58,161.83h-35.46Zm-49.46-27h40.45l-20.34-60.58Z"/>
      <path class="cls-13" d="M2053.79,1292.34h-49.57v134.82h-33.34V1292.34H1922v-27h131.82Z"/>
      <path class="cls-14" d="M2108.25,1427.16h-33.34V1265.33h33.34Z"/>
      <path class="cls-15" d="M2272.08,1349.91q0,23.91-8.44,41.91t-24.18,27.78q-15.72,9.78-36.07,9.78-20.11,0-35.9-9.67T2143,1392.09q-8.67-17.94-8.78-41.29v-8q0-23.9,8.62-42.07t24.34-27.9q15.72-9.72,36-9.72t36,9.72q15.72,9.74,24.34,27.9t8.61,42Zm-33.79-7.33q0-25.45-9.11-38.68t-26-13.23q-16.78,0-25.89,13.06t-9.23,38.29v7.89q0,24.79,9.11,38.46t26.23,13.67q16.79,0,25.79-13.17t9.11-38.4Z"/>
      <path class="cls-16" d="M2427.91,1427.16h-33.34l-64.91-106.48v106.48h-33.35V1265.33h33.35l65,106.7v-106.7h33.23Z"/>
      <path class="cls-17" d="M2541,1384.7q0-9.43-6.67-14.5t-24-10.67q-17.34-5.61-27.45-11.06-27.57-14.9-27.57-40.13a39,39,0,0,1,7.39-23.39q7.4-10.28,21.23-16.06a80,80,0,0,1,31.07-5.78q17.34,0,30.9,6.28a49.16,49.16,0,0,1,21.06,17.73,46.38,46.38,0,0,1,7.5,26h-33.34q0-11.1-7-17.28t-19.67-6.17q-12.23,0-19,5.17a16.32,16.32,0,0,0-6.78,13.62q0,7.89,7.94,13.22t23.4,10q28.45,8.55,41.46,21.22t13,31.57q0,21-15.89,33t-42.79,12a82.8,82.8,0,0,1-34-6.83q-15.33-6.84-23.39-18.73t-8.06-27.57h33.46q0,26.79,32,26.79,11.88,0,18.56-4.83A15.76,15.76,0,0,0,2541,1384.7Z"/>
    </g>
  </g>
</svg>