<svg id="Layer_3" data-name="Layer 3" xmlns="http://www.w3.org/2000/svg" xmlns:xlink="http://www.w3.org/1999/xlink" viewBox="0 0 2924.73 2708.63"><defs><style>.cls-1{fill:url(#linear-gradient);}.cls-2{fill:url(#linear-gradient-2);}.cls-3{fill:url(#linear-gradient-3);}.cls-4{fill:url(#linear-gradient-4);}.cls-5{fill:url(#linear-gradient-5);}.cls-6{fill:url(#linear-gradient-6);}.cls-10,.cls-11,.cls-7,.cls-8,.cls-9{stroke:#fff;stroke-miterlimit:10;stroke-width:2px;}.cls-7{fill:url(#linear-gradient-7);}.cls-8{fill:url(#radial-gradient);}.cls-9{fill:url(#radial-gradient-2);}.cls-10{fill:url(#radial-gradient-3);}.cls-11{fill:url(#radial-gradient-54);}</style><linearGradient id="linear-gradient" x1="430.94" y1="567.33" x2="602.72" y2="567.33" gradientUnits="userSpaceOnUse"><stop offset="0" stop-color="aqua"/><stop offset="0.92" stop-color="#2800ff"/></linearGradient><linearGradient id="linear-gradient-2" x1="1179" y1="226.31" x2="1365.78" y2="226.31" xlink:href="#linear-gradient"/><linearGradient id="linear-gradient-3" x1="1819.94" y1="192.27" x2="1974.23" y2="192.27" xlink:href="#linear-gradient"/><linearGradient id="linear-gradient-4" x1="2469.52" y1="827.85" x2="2623.81" y2="827.85" xlink:href="#linear-gradient"/><linearGradient id="linear-gradient-5" x1="185.77" y1="1781.04" x2="397.93" y2="1781.04" xlink:href="#linear-gradient"/><linearGradient id="linear-gradient-6" x1="2376.27" y1="2124.89" x2="2553.66" y2="2124.89" xlink:href="#linear-gradient"/><linearGradient id="linear-gradient-7" x1="1234.58" y1="2513.11" x2="1350.44" y2="2513.11" gradientUnits="userSpaceOnUse"><stop offset="0" stop-color="aqua"/><stop offset="1" stop-color="#2800ff"/></linearGradient><radialGradient id="radial-gradient" cx="1540.03" cy="1301.31" r="1346.62" gradientTransform="translate(808.42 -274.83) rotate(51.73)" xlink:href="#linear-gradient-7"/><radialGradient id="radial-gradient-2" cx="1540.03" cy="1301.31" r="1346.62" gradientTransform="translate(388.36 -439.39) rotate(31.71)" xlink:href="#linear-gradient-7"/><radialGradient id="radial-gradient-3" cx="1540.03" cy="1301.31" r="1346.62" xlink:href="#linear-gradient-7"/><radialGradient id="radial-gradient-54" cx="1540.03" cy="1301.46" r="1346.46" xlink:href="#linear-gradient-7"/></defs><polygon class="cls-1" points="512.22 483.69 542.73 535.5 602.72 539.74 562.87 584.77 577.37 643.13 522.23 619.15 471.2 650.98 476.98 591.12 430.94 552.43 489.65 539.42 512.22 483.69"/><polygon class="cls-2" points="1266.45 134.96 1300.43 190.91 1365.79 194.64 1323.07 244.25 1339.72 307.55 1279.35 282.26 1224.28 317.66 1229.68 252.42 1179 210.99 1242.71 195.96 1266.45 134.96"/><polygon class="cls-3" points="1892.18 116.82 1920.25 163.03 1974.23 166.11 1938.95 207.09 1952.7 259.38 1902.83 238.49 1857.35 267.73 1861.81 213.84 1819.94 179.62 1872.57 167.21 1892.18 116.82"/><polygon class="cls-4" points="2541.76 752.39 2569.82 798.61 2623.81 801.69 2588.53 842.66 2602.28 894.96 2552.41 874.06 2506.93 903.3 2511.38 849.41 2469.52 815.19 2522.15 802.78 2541.76 752.39"/><polygon class="cls-5" points="284.05 1676.84 323.55 1739.94 397.93 1743.17 350.12 1800.24 370.03 1871.98 300.98 1844.14 238.91 1885.24 244.04 1810.98 185.78 1764.64 257.99 1746.58 284.05 1676.84"/><polygon class="cls-6" points="2458.45 2037.76 2491.47 2090.52 2553.66 2093.22 2513.69 2140.94 2530.33 2200.92 2472.6 2177.65 2420.7 2212.01 2424.99 2149.91 2376.27 2111.18 2436.66 2096.07 2458.45 2037.76"/><polygon class="cls-7" points="1288.25 2456.21 1309.82 2490.67 1350.44 2492.43 1324.33 2523.59 1335.2 2562.77 1297.5 2547.57 1263.6 2570.01 1266.4 2529.46 1234.58 2504.16 1274.02 2494.29 1288.25 2456.21"/><rect class="cls-8" x="668.8" y="613.11" width="37.69" height="166.45" rx="6.73" transform="translate(-284.96 804.91) rotate(-51.73)"/><rect class="cls-9" x="948.79" y="389.75" width="37.69" height="148.39" rx="6.73" transform="translate(-99.4 577.93) rotate(-31.71)"/><polygon class="cls-10" points="539.25 1019.73 550.45 1042.12 805.24 1126.12 836.04 1120.52 816.44 1098.12 564.45 1008.53 539.25 1019.73"/><path class="cls-10" d="M928.4,1008.53s-8.43,25.73,0,38.06,176.43,93.53,176.43,93.53h25.31l-11.31-19.6Z"/><polygon class="cls-10" points="894.84 868.53 911.64 890.93 924.65 879.73 906.04 857.33 894.84 868.53"/><polygon class="cls-10" points="1051.63 1000.13 1228.03 1137.32 1233.18 1126.12 1060.03 986.13 1051.63 1000.13"/><polygon class="cls-10" points="1208.43 1190.52 1216.83 1179.32 1334.42 1249.32 1317.6 1249.32 1208.43 1190.52"/><polygon class="cls-10" points="1149.63 1226.92 1144.03 1238.12 1222.43 1263.32 1225.23 1257.72 1149.63 1226.92"/><polygon class="cls-10" points="1295.22 1095.32 1284.03 1106.52 1370.82 1201.72 1379.22 1193.32 1295.22 1095.32"/><path class="cls-10" d="M1085.23,846.13l-16.8,14v17.31l140,147.73,16.8,2.95,1.43-19.59S1116,857.33,1085.23,846.13Z"/><polygon class="cls-10" points="1202.83 876.93 1219.63 862.93 1328.82 1058.92 1321.01 1061.72 1202.83 876.93"/><polygon class="cls-10" points="1102.03 594.14 1118.83 580.14 1228.03 776.13 1220.21 778.93 1102.03 594.14"/><polygon class="cls-10" points="1368.02 1014.13 1379.22 1010.28 1404.42 1084.12 1398.82 1086.92 1368.02 1014.13"/><polygon class="cls-10" points="1502.42 991.73 1508.16 991.73 1508.16 1117.66 1503.81 1117.66 1502.42 991.73"/><path class="cls-10" d="M1452,1098.12l9.12-2.8s-87.52-574-90.32-590.78-11.2-28-30.8-22.4-14,16.47-11.2,27.84l61.6,296.95Z"/><path class="cls-10" d="M1508,373s-19.6,0-22.4,28,0,238,2.8,243.59,14,25.2,16.8,25.2,14-11.2,14-19.6,2.8-257.59,2.8-260.39S1527.62,373,1508,373Z"/><path class="cls-10" d="M1863.6,331l-39.19,103.6s0,22.4,11.2,25.2,14-2.8,22.39-11.2,44.8-109.2,44.8-109.2S1897.2,294.55,1863.6,331Z"/><path class="cls-10" d="M1625.61,711.74c-5.6,0-28,19.6-28,19.6l-25.19,187.59,7.9,18.2s14.49-10.21,18.69-19.81,40.6-166.39,40.6-174.78S1625.61,711.74,1625.61,711.74Z"/><polygon class="cls-10" points="1558.42 1030.92 1572.41 1032.78 1541.62 1170.92 1532.83 1170.92 1558.42 1030.92"/><polygon class="cls-10" points="1690.01 826.53 1704.01 832.13 1622.81 1036.53 1612.9 1030.92 1690.01 826.53"/><polygon class="cls-10" points="1863.6 918.93 1876.86 931.53 1726.03 1095.32 1718.01 1092.52 1863.6 918.93"/><path class="cls-10" d="M1695.61,1204.52l506.78-389.19s5.6-2.8,8.4-30.8c0,0-25.32-2.8-30.86,0s-330.33,280-330.33,280l-159.88,137.2Z"/><polygon class="cls-10" points="1748.81 1218.52 1832.81 1168.12 1838.4 1176.52 1751.61 1224.12 1748.81 1218.52"/><path class="cls-10" d="M2126.39,1007.13s6-18.2,14.4-21,221.2-126,221.2-126h26.66l12.53,16.8s-19.59,16.8-22.39,19.6-224,117.6-224,117.6S2131.59,1014.13,2126.39,1007.13Z"/><path class="cls-10" d="M2331.19,1042.12c5.6-2.8,44.8,5.6,42,11.2s-28,28-28,28l-114.8,36.4-425.58,137.2-14-5.6,490-187.6Z"/><path class="cls-10" d="M1762.81,638.94s-14,14-14,16.8,11.2,25.2,11.2,25.2,11.2-14,14-22.4S1762.81,638.94,1762.81,638.94Z"/><polygon class="cls-10" points="1978.4 784.53 2000.8 764.93 2017.6 778.93 1992.4 798.53 1978.4 784.53"/><path class="cls-10" d="M2132.39,596.94v26l28-3.61s81.2-84,84-92.4-14-28-28-22.4S2132.39,596.94,2132.39,596.94Z"/><path class="cls-10" d="M2468.38,1184.92s11.2-16.8,19.6-19.6,100.8-22.4,109.2-22.4,25.2,14,25.2,14-11.2,22.4-16.8,25.2-109.2,16.8-117.6,16.8S2468.38,1184.92,2468.38,1184.92Z"/><path class="cls-10" d="M2241.59,1221.32s11.2-16.8,19.6-14,22.4,11.2,22.4,11.2-14,14-22.4,16.8S2241.59,1221.32,2241.59,1221.32Z"/><path class="cls-10" d="M2213.59,1476.11s14-11.2,19.6-11.2,260.39,39.2,263.19,42,16.8,19.6,16.8,19.6-19.6,16.8-25.2,19.6-257.59-53.2-257.59-53.2Z"/><path class="cls-10" d="M1732,1434.11h16.8s604.78,193.19,607.58,196,17.08,20.35,16.94,24.18-2.94,23.42-33.74,15S1732,1434.11,1732,1434.11Z"/><polygon class="cls-10" points="1673.21 1436.91 1801.76 1505.56 1793.61 1517.1 1667.61 1445.31 1673.21 1436.91"/><path class="cls-10" d="M1883.2,1554.51H1906l173.16,86.79s15.52,18.15,16.16,30.07c.64.73-19,9.13-33,7.73s-154-91-159.6-93.8S1886,1579.7,1883.2,1554.51Z"/><path class="cls-10" d="M1771.21,1562.91c0,2.8,103.59,117.59,176.39,140Z"/><path class="cls-10" d="M2073.6,1820.5s8.4-11.2,14-11.2,22.4,19.6,22.4,19.6-12.45,9.5-14.63,10.35S2073.6,1826.1,2073.6,1820.5Z"/><path class="cls-10" d="M2252.79,1960.49c0-2.8,11.2-11.2,16.8-11.2s101.08,77.36,103.74,79.28,8.26,18.72-2.94,27.12-28-2.8-39.2-11.2-58.8-47.6-67.2-56S2252.79,1974.49,2252.79,1960.49Z"/><path class="cls-10" d="M1678.23,1546.21v16.7s370.17,448,381.37,459.18,21.15,25.74,35.77,15.67,11.83-21.27,9-26.87-156.8-169.16-156.8-169.16Z"/><polygon class="cls-10" points="1597.61 1512.51 1604.37 1505.56 1684.41 1624.5 1667.61 1632.9 1597.61 1512.51"/><polygon class="cls-10" points="1712.41 1716.9 1720.81 1705.7 1744.03 1716.9 1849.61 1876.49 1846.81 1910.09 1818.81 1907.29 1712.41 1716.9"/><polygon class="cls-10" points="1601.26 1616.88 1608.09 1616.88 1641.01 1698.97 1627.95 1702.9 1601.26 1616.88"/><path class="cls-10" d="M1740.41,2024.89l8.4-16.8,22.4,8.4,98,240.79s2.8,18.61-9.8,23.3-26.59,1.9-32.19-12.1S1740.41,2024.89,1740.41,2024.89Z"/><path class="cls-10" d="M1541.62,1588.1h10.61L1681.61,2200a24.52,24.52,0,0,1-21.28,29.45h0a24.53,24.53,0,0,1-27-20.79Z"/><path class="cls-10" d="M1502.42,1571.31h13.81l10.93,642.42a26.3,26.3,0,0,1-26.3,26.75h0a26.3,26.3,0,0,1-26.27-27.44Z"/><path class="cls-10" d="M1442.52,1679.26s-49.3,183.23-49.3,216.83l14,2.8Z"/><path class="cls-10" d="M1443.62,1523.71l-44.8,137.19S1382,1610.5,1443.62,1523.71Z"/><path class="cls-10" d="M1359.62,1736.5l8.4,11.2-61.6,190.39s-19.59,19.6-25.19,19.6-14-25.2-14-30.8,72.79-176.39,75.59-179.19S1359.62,1736.5,1359.62,1736.5Z"/><polygon class="cls-10" points="1356.82 1599.3 1362.42 1602.1 1317.62 1679.26 1306.42 1672.1 1356.82 1599.3"/><path class="cls-10" d="M1365.22,2052.89s-16.8,25.2-14,28,11.2,16.06,14,15,16.8-20.63,16.8-20.63Z"/><path class="cls-10" d="M1306.42,2296.48l22-13.79,14.36,16.59-18.2,110.1s-21,18.69-23.8,18.69-16.79-25.19-16.79-28S1306.42,2296.48,1306.42,2296.48Z"/><path class="cls-10" d="M1127.23,1960.49s12.28-5.6,15.94-2.8,9.26,11.2,9.26,11.2-126,226.79-134.39,232.39-36.4,22.4-33.6-11.2S1127.23,1960.49,1127.23,1960.49Z"/><path class="cls-10" d="M1311.39,1569.23l6.23,5.59-378,458.47s-42,25.2-30.8-28C931.24,1957.69,1311.39,1569.23,1311.39,1569.23Z"/><polygon class="cls-10" points="1207.11 1592.3 1215.18 1599.3 1286.83 1537.71 1281.23 1532.11 1207.11 1592.3"/><path class="cls-11" d="M928.44,1800.9h26s4.77,11.2-9.23,25.2-182,154-190.4,162.39-25.19,25.2-39.19-5.6c-5.6-16.8,19.6-36.4,33.59-44.8S928.44,1800.9,928.44,1800.9Z"/><path class="cls-10" d="M1281.23,1473.31l5.6,7.16-549,323.77s-53,21.86-27.79-34.14C735.25,1750.5,1281.23,1473.31,1281.23,1473.31Z"/><path class="cls-10" d="M955.25,1532.11l6.79,16.8s186.69-75.6,205.34-75.6c-1,0,4.65-14,4.65-14Z"/><path class="cls-10" d="M511.9,1504.11c4.23-2.58,245.74-42,256.94-39.2s28,11.2,25.2,14-16.8,19.6-22.4,19.6-253.49,50.4-259.74,50.4S470.55,1529.31,511.9,1504.11Z"/><path class="cls-10" d="M435.66,1700.1s123.19-36.4,126-36.4,18.94,15.83,9.47,24.71-118.66,48.09-124.26,50.89S407.66,1722.5,435.66,1700.1Z"/><path class="cls-10" d="M760.44,1602.1s8.4-16.8,19.6-14,21.74,14,21.74,14-16.14,14-27.34,11.2S760.44,1602.1,760.44,1602.1Z"/></svg>