<svg width="10" height="10" viewBox="0 0 10 10" fill="none" xmlns="http://www.w3.org/2000/svg">
<path d="M3 3H2.6C2.03995 3 1.75992 3 1.54601 3.10899C1.35785 3.20487 1.20487 3.35785 1.10899 3.54601C1 3.75992 1 4.03995 1 4.6V7.4C1 7.96005 1 8.24008 1.10899 8.45399C1.20487 8.64215 1.35785 8.79513 1.54601 8.89101C1.75992 9 2.03995 9 2.6 9H5.4C5.96005 9 6.24008 9 6.45399 8.89101C6.64215 8.79513 6.79513 8.64215 6.89101 8.45399C7 8.24008 7 7.96005 7 7.4V7M4.6 7H7.4C7.96005 7 8.24008 7 8.45399 6.89101C8.64215 6.79513 8.79513 6.64215 8.89101 6.45399C9 6.24008 9 5.96005 9 5.4V2.6C9 2.03995 9 1.75992 8.89101 1.54601C8.79513 1.35785 8.64215 1.20487 8.45399 1.10899C8.24008 1 7.96005 1 7.4 1H4.6C4.03995 1 3.75992 1 3.54601 1.10899C3.35785 1.20487 3.20487 1.35785 3.10899 1.54601C3 1.75992 3 2.03995 3 2.6V5.4C3 5.96005 3 6.24008 3.10899 6.45399C3.20487 6.64215 3.35785 6.79513 3.54601 6.89101C3.75992 7 4.03995 7 4.6 7Z" stroke="#5A5D79" stroke-width="0.5" stroke-linecap="round" stroke-linejoin="round"/>
</svg>
