<svg width="16" height="16" viewBox="0 0 16 16" fill="none" xmlns="http://www.w3.org/2000/svg">
<path d="M4.5 4.5H3.8C2.81991 4.5 2.32986 4.5 1.95552 4.69074C1.62623 4.85852 1.35852 5.12623 1.19074 5.45552C1 5.82986 1 6.31991 1 7.3V12.2C1 13.1801 1 13.6701 1.19074 14.0445C1.35852 14.3738 1.62623 14.6415 1.95552 14.8093C2.32986 15 2.81991 15 3.8 15H8.7C9.68009 15 10.1701 15 10.5445 14.8093C10.8738 14.6415 11.1415 14.3738 11.3093 14.0445C11.5 13.6701 11.5 13.1801 11.5 12.2V11.5M7.3 11.5H12.2C13.1801 11.5 13.6701 11.5 14.0445 11.3093C14.3738 11.1415 14.6415 10.8738 14.8093 10.5445C15 10.1701 15 9.68009 15 8.7V3.8C15 2.81991 15 2.32986 14.8093 1.95552C14.6415 1.62623 14.3738 1.35852 14.0445 1.19074C13.6701 1 13.1801 1 12.2 1H7.3C6.31991 1 5.82986 1 5.45552 1.19074C5.12623 1.35852 4.85852 1.62623 4.69074 1.95552C4.5 2.32986 4.5 2.81991 4.5 3.8V8.7C4.5 9.68009 4.5 10.1701 4.69074 10.5445C4.85852 10.8738 5.12623 11.1415 5.45552 11.3093C5.82986 11.5 6.31991 11.5 7.3 11.5Z" stroke="rgba(217, 217, 217, 1)" stroke-linecap="round" stroke-linejoin="round"/>
</svg>
