<svg width="22" height="22" viewBox="0 0 22 22" fill="none" xmlns="http://www.w3.org/2000/svg">
<circle cx="11" cy="11" r="11" fill="#C9F5FF"/>
<path d="M11 6.33322C11.9537 6.33322 12.8683 6.67033 13.5426 7.27039C14.217 7.87046 14.5958 8.68432 14.5958 9.53294C14.5958 10.8455 14.8922 11.8285 15.2765 12.5513C15.7676 13.4748 16.0131 13.9365 15.9995 14.042C15.9835 14.1651 15.9632 14.199 15.8622 14.2709C15.7756 14.3325 15.3446 14.3325 14.4828 14.3325H7.51722C6.65537 14.3325 6.22445 14.3325 6.13782 14.2709C6.03677 14.199 6.01647 14.1651 6.00054 14.042C5.98688 13.9365 6.23241 13.4748 6.72346 12.5513C7.10779 11.8285 7.40417 10.8455 7.40417 9.53294C7.40417 8.68432 7.78302 7.87046 8.45737 7.27039C9.13171 6.67033 10.0463 6.33322 11 6.33322ZM11 6.33322V5M9.23805 16.3323C9.70833 16.7479 10.3261 17 11.0027 17C11.6792 17 12.297 16.7479 12.7673 16.3323" stroke="#0066FF" stroke-linecap="round" stroke-linejoin="round"/>
</svg>
