<svg width="13" height="7" viewBox="0 0 13 7" fill="none" xmlns="http://www.w3.org/2000/svg">
<path d="M8.00002 3.5C8.00002 3.79667 7.91204 4.08667 7.74722 4.33334C7.5824 4.58002 7.34813 4.77229 7.07404 4.88582C6.79995 4.99936 6.49834 5.02905 6.20737 4.97118C5.9164 4.9133 5.64912 4.77044 5.43934 4.56066C5.22956 4.35088 5.0867 4.0836 5.02882 3.79263C4.97094 3.50166 5.00065 3.20004 5.11418 2.92595C5.22771 2.65186 5.41997 2.41763 5.66665 2.2528C5.91332 2.08798 6.20333 2 6.50001 2C6.89755 2.00091 7.27856 2.15923 7.55966 2.44034C7.84077 2.72145 7.9991 3.10245 8.00002 3.5Z" fill="#5A5D79"/>
<path d="M12.8007 3.03336C11.8286 2.07801 9.38482 0 6.5 0C3.61518 0 1.18492 2.07801 0.199309 3.03336C0.136172 3.09437 0.0860435 3.16704 0.0518304 3.24714C0.0176172 3.32725 0 3.41318 0 3.5C0 3.58682 0.0176172 3.6728 0.0518304 3.75291C0.0860435 3.83302 0.136172 3.90568 0.199309 3.9667C1.17142 4.92205 3.61968 7 6.5 7C9.38032 7 11.8106 4.92205 12.8007 3.9667C12.8638 3.90568 12.914 3.83302 12.9482 3.75291C12.9824 3.6728 13 3.58682 13 3.5C13 3.41318 12.9824 3.32725 12.9482 3.24714C12.914 3.16704 12.8638 3.09437 12.8007 3.03336V3.03336ZM6.5 5.77613C6.03854 5.777 5.58719 5.64385 5.20313 5.3936C4.81907 5.14335 4.51957 4.78724 4.34257 4.37035C4.16556 3.95346 4.11902 3.49458 4.20882 3.05179C4.29863 2.60901 4.52075 2.20221 4.84706 1.88301C5.17336 1.56381 5.58916 1.34654 6.0418 1.25869C6.49444 1.17084 6.96355 1.21635 7.38971 1.3895C7.81588 1.56265 8.17992 1.85566 8.43574 2.23137C8.69156 2.60707 8.82765 3.04858 8.82676 3.5C8.8256 4.10027 8.58255 4.67589 8.15034 5.10199C7.71813 5.5281 7.1316 5.77034 6.518 5.77613H6.5Z" fill="#5A5D79"/>
</svg>
