<svg width="22" height="22" viewBox="0 0 22 22" fill="none" xmlns="http://www.w3.org/2000/svg">
<circle cx="11" cy="11" r="11" fill="#FFDBDB"/>
<path d="M4.80614 4.3999L18.2936 17.5999M9.93458 9.46991C9.54296 9.86584 9.30196 10.4053 9.30196 10.9999C9.30196 12.2149 10.3084 13.1999 11.5499 13.1999C12.1662 13.1999 12.7245 12.9572 13.1306 12.5641M7.4287 7.07448C6.00555 7.99348 4.92156 9.37479 4.40002 10.9999C5.35483 13.9751 8.19491 16.1332 11.55 16.1332C13.0403 16.1332 14.429 15.7074 15.5959 14.9734M10.8006 5.90279C11.0471 5.87883 11.2971 5.86657 11.55 5.86657C14.9051 5.86657 17.7452 8.02471 18.7 10.9999C18.4896 11.6555 18.1877 12.2714 17.8089 12.8332" stroke="#FF3C3C" stroke-linecap="round" stroke-linejoin="round"/>
</svg>
