<svg width="22" height="22" viewBox="0 0 22 22" fill="none" xmlns="http://www.w3.org/2000/svg">
<circle cx="11" cy="11" r="11" fill="#B4D6FF"/>
<path d="M11 6.66667C11 7.58714 10.2538 8.33333 9.33333 8.33333C8.41286 8.33333 7.66667 7.58714 7.66667 6.66667M11 6.66667C11 5.74619 10.2538 5 9.33333 5C8.41286 5 7.66667 5.74619 7.66667 6.66667M11 6.66667H17M7.66667 6.66667H5M15.6667 11C15.6667 11.9205 14.9205 12.6667 14 12.6667C13.0795 12.6667 12.3333 11.9205 12.3333 11M15.6667 11C15.6667 10.0795 14.9205 9.33333 14 9.33333C13.0795 9.33333 12.3333 10.0795 12.3333 11M15.6667 11H17M12.3333 11H5M9.66667 15.3333C9.66667 16.2538 8.92047 17 8 17C7.07953 17 6.33333 16.2538 6.33333 15.3333M9.66667 15.3333C9.66667 14.4129 8.92047 13.6667 8 13.6667C7.07953 13.6667 6.33333 14.4129 6.33333 15.3333M9.66667 15.3333H17M6.33333 15.3333H5" stroke="#374A62" stroke-linecap="round" stroke-linejoin="round"/>
</svg>
