<svg width="34" height="30" viewBox="0 0 34 30" fill="none" xmlns="http://www.w3.org/2000/svg">
<path d="M26.2586 1.38148L26.0345 1.82841L26.0345 1.82841L26.2586 1.38148ZM27.8125 2.91103L27.3684 3.14087L27.3684 3.14087L27.8125 2.91103ZM32.8665 10.55L32.3858 10.6877L32.3858 10.6877L32.8665 10.55ZM30.4096 8.13141L30.5433 7.64963L30.5433 7.64963L30.4096 8.13141ZM2.94137 28.6185L3.16553 28.1716L3.16553 28.1716L2.94137 28.6185ZM1.38753 27.089L1.83157 26.8591L1.83157 26.8591L1.38753 27.089ZM31.0586 28.6185L30.8345 28.1716L30.8345 28.1716L31.0586 28.6185ZM32.6125 27.089L33.0565 27.3188L33.0565 27.3188L32.6125 27.089ZM1.38753 2.91103L0.943491 2.68119L0.943491 2.68119L1.38753 2.91103ZM2.94137 1.38148L2.7172 0.934544L2.7172 0.934544L2.94137 1.38148ZM33 15H33.5C33.5 14.7239 33.2761 14.5 33 14.5V15ZM33 22V22.5C33.2761 22.5 33.5 22.2761 33.5 22H33ZM18.7778 18.5014L19.1285 18.8578C19.224 18.7639 19.2778 18.6355 19.2778 18.5015C19.2778 18.3675 19.2241 18.2392 19.1286 18.1452L18.7778 18.5014ZM8.11118 18C7.83504 18 7.61115 18.2238 7.61111 18.4999C7.61107 18.7761 7.8349 19 8.11104 19L8.11118 18ZM14.6842 13.7687C14.4874 13.575 14.1708 13.5774 13.9771 13.7742C13.7833 13.9709 13.7858 14.2875 13.9825 14.4813L14.6842 13.7687ZM13.9826 22.5186C13.7858 22.7123 13.7833 23.0289 13.9769 23.2257C14.1706 23.4225 14.4872 23.4251 14.684 23.2314L13.9826 22.5186ZM27.3111 28.5H6.68889V29.5H27.3111V28.5ZM1.5 23.4V8H0.5V23.4H1.5ZM1.5 8V6.6H0.5V8H1.5ZM32.5 12.725V23.4H33.5V12.725H32.5ZM6.68889 1.5H22.5111V0.5H6.68889V1.5ZM28.2 7.5H1V8.5H28.2V7.5ZM27.7 6.6V8H28.7V6.6H27.7ZM22.5111 1.5C23.5149 1.5 24.2381 1.50038 24.8063 1.54608C25.3689 1.59132 25.7357 1.67857 26.0345 1.82841L26.4828 0.934544C26.021 0.702911 25.5097 0.599416 24.8865 0.549294C24.2689 0.499623 23.4986 0.5 22.5111 0.5V1.5ZM28.7 6.6C28.7 5.62829 28.7004 4.86896 28.6498 4.25985C28.5988 3.64467 28.4932 3.13846 28.2565 2.68119L27.3684 3.14087C27.5193 3.4323 27.6074 3.79048 27.6533 4.34256C27.6996 4.90072 27.7 5.61153 27.7 6.6H28.7ZM26.0345 1.82841C26.6101 2.11711 27.0766 2.577 27.3684 3.14087L28.2565 2.68119C27.8666 1.92793 27.2452 1.31696 26.4828 0.934543L26.0345 1.82841ZM33.5 12.725C33.5 11.6199 33.5049 10.9627 33.3472 10.4122L32.3858 10.6877C32.4951 11.0691 32.5 11.5513 32.5 12.725H33.5ZM28.2 8.5C29.3909 8.5 29.8847 8.5046 30.2758 8.61318L30.5433 7.64963C29.9878 7.4954 29.3241 7.5 28.2 7.5V8.5ZM33.3472 10.4122C32.9627 9.07024 31.8988 8.02594 30.5433 7.64963L30.2758 8.61318C31.3016 8.89797 32.0988 9.68562 32.3858 10.6877L33.3472 10.4122ZM6.68889 28.5C5.68512 28.5 4.96189 28.4996 4.39369 28.4539C3.8311 28.4087 3.46429 28.3214 3.16553 28.1716L2.7172 29.0655C3.17902 29.2971 3.69032 29.4006 4.31352 29.4507C4.93111 29.5004 5.70136 29.5 6.68889 29.5V28.5ZM0.5 23.4C0.5 24.3717 0.499599 25.131 0.550155 25.7402C0.601215 26.3553 0.706802 26.8615 0.943491 27.3188L1.83157 26.8591C1.68073 26.5677 1.59255 26.2095 1.54673 25.6574C1.5004 25.0993 1.5 24.3885 1.5 23.4H0.5ZM3.16553 28.1716C2.58994 27.8829 2.12344 27.423 1.83157 26.8591L0.943491 27.3188C1.33339 28.0721 1.95475 28.683 2.7172 29.0655L3.16553 28.1716ZM27.3111 29.5C28.2986 29.5 29.0689 29.5004 29.6865 29.4507C30.3097 29.4006 30.821 29.2971 31.2828 29.0655L30.8345 28.1716C30.5357 28.3214 30.1689 28.4087 29.6063 28.4539C29.0381 28.4996 28.3149 28.5 27.3111 28.5V29.5ZM32.5 23.4C32.5 24.3885 32.4996 25.0993 32.4533 25.6574C32.4074 26.2095 32.3193 26.5677 32.1684 26.8591L33.0565 27.3188C33.2932 26.8615 33.3988 26.3553 33.4498 25.7402C33.5004 25.131 33.5 24.3717 33.5 23.4H32.5ZM31.2828 29.0655C32.0453 28.683 32.6666 28.0721 33.0565 27.3188L32.1684 26.8591C31.8766 27.423 31.4101 27.8829 30.8345 28.1716L31.2828 29.0655ZM1.5 6.6C1.5 5.61153 1.5004 4.90072 1.54673 4.34256C1.59255 3.79048 1.68073 3.4323 1.83157 3.14087L0.943491 2.68119C0.706802 3.13846 0.601215 3.64467 0.550155 4.25985C0.499599 4.86896 0.5 5.62829 0.5 6.6H1.5ZM6.68889 0.5C5.70136 0.5 4.93111 0.499623 4.31352 0.549294C3.69032 0.599416 3.17902 0.702911 2.7172 0.934544L3.16553 1.82841C3.46429 1.67857 3.8311 1.59132 4.39369 1.54608C4.96189 1.50038 5.68512 1.5 6.68889 1.5V0.5ZM1.83157 3.14087C2.12344 2.577 2.58994 2.11711 3.16553 1.82841L2.7172 0.934544C1.95475 1.31696 1.33339 1.92793 0.943491 2.68119L1.83157 3.14087ZM29.4444 15.5H33V14.5H29.4444V15.5ZM32.5 15V22H33.5V15H32.5ZM33 21.5H29.4444V22.5H33V21.5ZM29.4444 21.5C27.7495 21.5 26.3889 20.1495 26.3889 18.5H25.3889C25.3889 20.7165 27.2121 22.5 29.4444 22.5V21.5ZM29.4444 14.5C27.2121 14.5 25.3889 16.2835 25.3889 18.5H26.3889C26.3889 16.8505 27.7495 15.5 29.4444 15.5V14.5ZM18.7778 18.0014L8.11118 18L8.11104 19L18.7777 19.0014L18.7778 18.0014ZM19.1286 18.1452L14.6842 13.7687L13.9825 14.4813L18.427 18.8577L19.1286 18.1452ZM18.4271 18.1451L13.9826 22.5186L14.684 23.2314L19.1285 18.8578L18.4271 18.1451Z" fill="#5A5D79"/>
</svg>
