<svg width="22" height="22" viewBox="0 0 22 22" fill="none" xmlns="http://www.w3.org/2000/svg">
<circle cx="11" cy="11" r="11" fill="#FFDBDB"/>
<path d="M11 15.9714C9.27411 15.9714 7.875 14.4364 7.875 12.5429M11 15.9714C12.7259 15.9714 14.125 14.4364 14.125 12.5429M11 15.9714V12.5429M7.875 12.5429V11.0735C7.875 10.5263 7.875 10.2527 7.94515 10.0328C8.07079 9.63882 8.35309 9.32909 8.71215 9.19125C8.91262 9.11429 9.16198 9.11429 9.66071 9.11429H12.3393C12.838 9.11429 13.0874 9.11429 13.2878 9.19125C13.6469 9.32909 13.9292 9.63882 14.0549 10.0328C14.125 10.2527 14.125 10.5263 14.125 11.0735V12.5429M7.875 12.5429H6M14.125 12.5429H16M14.125 9.8L15.6875 8.08571M6.3125 17L8.5 14.6M7.875 9.8L6.3125 8.08571M15.6875 17L13.5 14.6M12.25 7.05714V6.37143C12.25 5.61401 11.6904 5 11 5C10.3096 5 9.75 5.61401 9.75 6.37143V7.05714H12.25Z" stroke="#39465F" stroke-linecap="round" stroke-linejoin="round"/>
</svg>
