<svg width="22" height="22" viewBox="0 0 22 22" fill="none" xmlns="http://www.w3.org/2000/svg">
<circle cx="11" cy="11" r="11" fill="#DBFFE5"/>
<path d="M5 11H17M11 8.33333V11M7.33333 11V13.6667M14.6667 11V13.6667M9.73333 8.33333H12.2667C12.64 8.33333 12.8267 8.33333 12.9693 8.26067C13.0948 8.19676 13.1968 8.09477 13.2607 7.96933C13.3333 7.82672 13.3333 7.64004 13.3333 7.26667V6.06667C13.3333 5.6933 13.3333 5.50661 13.2607 5.36401C13.1968 5.23856 13.0948 5.13658 12.9693 5.07266C12.8267 5 12.64 5 12.2667 5H9.73333C9.35997 5 9.17328 5 9.03067 5.07266C8.90523 5.13658 8.80324 5.23856 8.73933 5.36401C8.66667 5.50661 8.66667 5.6933 8.66667 6.06667V7.26667C8.66667 7.64004 8.66667 7.82672 8.73933 7.96933C8.80324 8.09477 8.90523 8.19676 9.03067 8.26067C9.17328 8.33333 9.35997 8.33333 9.73333 8.33333ZM13.4 17H15.9333C16.3067 17 16.4934 17 16.636 16.9273C16.7614 16.8634 16.8634 16.7614 16.9273 16.636C17 16.4934 17 16.3067 17 15.9333V14.7333C17 14.36 17 14.1733 16.9273 14.0307C16.8634 13.9052 16.7614 13.8032 16.636 13.7393C16.4934 13.6667 16.3067 13.6667 15.9333 13.6667H13.4C13.0266 13.6667 12.8399 13.6667 12.6973 13.7393C12.5719 13.8032 12.4699 13.9052 12.406 14.0307C12.3333 14.1733 12.3333 14.36 12.3333 14.7333V15.9333C12.3333 16.3067 12.3333 16.4934 12.406 16.636C12.4699 16.7614 12.5719 16.8634 12.6973 16.9273C12.8399 17 13.0266 17 13.4 17ZM6.06667 17H8.6C8.97337 17 9.16005 17 9.30266 16.9273C9.4281 16.8634 9.53009 16.7614 9.594 16.636C9.66667 16.4934 9.66667 16.3067 9.66667 15.9333V14.7333C9.66667 14.36 9.66667 14.1733 9.594 14.0307C9.53009 13.9052 9.4281 13.8032 9.30266 13.7393C9.16005 13.6667 8.97337 13.6667 8.6 13.6667H6.06667C5.6933 13.6667 5.50661 13.6667 5.36401 13.7393C5.23856 13.8032 5.13658 13.9052 5.07266 14.0307C5 14.1733 5 14.36 5 14.7333V15.9333C5 16.3067 5 16.4934 5.07266 16.636C5.13658 16.7614 5.23856 16.8634 5.36401 16.9273C5.50661 17 5.6933 17 6.06667 17Z" stroke="#39453D" stroke-linecap="round" stroke-linejoin="round"/>
</svg>
