<svg width="22" height="22" viewBox="0 0 22 22" fill="none" xmlns="http://www.w3.org/2000/svg">
<circle cx="11" cy="11" r="11" fill="#C9F5FF"/>
<path d="M18 11C18 14.866 14.866 18 11 18M18 11C18 7.13401 14.866 4 11 4M18 11C18 12.2887 14.866 13.3333 11 13.3333C7.13401 13.3333 4 12.2887 4 11M18 11C18 9.71134 14.866 8.66667 11 8.66667C7.13401 8.66667 4 9.71134 4 11M11 18C7.13401 18 4 14.866 4 11M11 18C9.71134 18 8.66667 14.866 8.66667 11C8.66667 7.13401 9.71134 4 11 4M11 18C12.2887 18 13.3333 14.866 13.3333 11C13.3333 7.13401 12.2887 4 11 4M4 11C4 7.13401 7.13401 4 11 4" stroke="#0089FF" stroke-width="0.8" stroke-linecap="round" stroke-linejoin="round"/>
</svg>
