<svg width="22" height="22" viewBox="0 0 22 22" fill="none" xmlns="http://www.w3.org/2000/svg">
<circle cx="11" cy="11" r="11" fill="#00A3FF"/>
<path d="M12.7253 9.03022H12.7184M15.4077 14.6994L14.5136 13.88C14.0027 13.4119 13.7473 13.1778 13.4578 13.0866C13.2028 13.0062 12.9305 13.0031 12.6737 13.0777C12.3824 13.1623 12.1219 13.3905 11.601 13.8468L11.171 14.2236M6.1773 13.9613L7.11338 13.1412C7.63432 12.6848 7.89479 12.4566 8.18614 12.372C8.44286 12.2975 8.71521 12.3006 8.97024 12.381C9.25967 12.4722 9.51511 12.7062 10.026 13.1744L11.171 14.2236M11.171 14.2236L13.9961 16.8124M12.3801 9.03022C12.3801 9.22508 12.5347 9.38305 12.7253 9.38305C12.916 9.38305 13.0705 9.22508 13.0705 9.03022C13.0705 8.83536 12.916 8.6774 12.7253 8.6774C12.5347 8.6774 12.3801 8.83536 12.3801 9.03022ZM8.6904 17H13.3096C13.8029 17 14.2588 16.731 14.5054 16.2943L16.815 12.2057C17.0617 11.769 17.0617 11.231 16.815 10.7943L14.5054 6.70565C14.2588 6.26899 13.8029 6 13.3096 6H8.6904C8.19709 6 7.74125 6.26899 7.49459 6.70565L5.18499 10.7943C4.93834 11.231 4.93834 11.769 5.18499 12.2057L7.49459 16.2943C7.74125 16.731 8.19709 17 8.6904 17Z" stroke="white" stroke-linecap="round" stroke-linejoin="round"/>
</svg>
