<svg width="11" height="11" viewBox="0 0 11 11" fill="none" xmlns="http://www.w3.org/2000/svg">
<path d="M7.28272 2.27836L8.70778 3.69419M1 10C1.06354 9.55929 1.09895 9.10083 1.24737 8.67836C1.33286 8.43499 1.44966 8.20355 1.59488 7.98975C1.75852 7.74882 1.97031 7.53898 2.39389 7.1193L8.27742 1.29283C8.67148 0.902392 9.31039 0.902391 9.70445 1.29282C10.0985 1.68326 10.0985 2.31627 9.70445 2.70671L3.73035 8.62293C3.37145 8.97853 3.19199 9.15633 2.98874 9.3003C2.8083 9.42812 2.61423 9.5359 2.41002 9.62171C1.96408 9.80908 1.46986 9.88786 1 10Z" stroke="#5A5D79" stroke-linejoin="round"/>
</svg>
