<svg width="66" height="65" viewBox="0 0 66 65" fill="none" xmlns="http://www.w3.org/2000/svg">
<g style="mix-blend-mode:lighten">
<path d="M0 32.0294C0 14.3401 14.3401 0 32.0294 0H33.9706C51.6599 0 66 14.3401 66 32.0294V32.0294C66 49.7188 51.6599 64.0588 33.9706 64.0588H32.0294C14.3401 64.0588 0 49.7188 0 32.0294V32.0294Z" fill="#FF0000"/>
<mask id="mask0_4_27" style="mask-type:alpha" maskUnits="userSpaceOnUse" x="-2" y="12" width="67" height="65">
<g clip-path="url(#clip0_4_27)">
<path d="M19.3018 21.4816C20.5018 20.2816 44.4685 19.9816 56.3018 19.9816L51.8018 14.4816L56.3018 10.4816L61.3018 15.9816L67.3018 21.4816L56.3018 34.4816L51.8018 31.9816L57.3018 26.4816C73.4685 14.4816 94.7018 -6.71842 50.3018 4.48158C5.90184 15.6816 72.1352 12.4816 110.802 9.4816" stroke="black"/>
</g>
</mask>
<g mask="url(#mask0_4_27)">
</g>
</g>
<path d="M46.8298 16.941C42.7995 14.2603 39.4268 12.02 39.3208 12.0009C39.2359 11.9626 39.1511 13.188 39.1511 14.7199L39.1511 17.5154L25.5755 17.5154L12 17.5154L12 21.9194L12 26.3234L25.5755 26.3234L39.1299 26.3234L39.1935 29.0807L39.2572 31.838L46.554 26.9745C50.5843 24.3129 53.9357 22.0535 54.0206 21.9769C54.1054 21.8811 50.86 19.6217 46.8298 16.941Z" fill="white"/>
<path d="M40.5935 39.4971L26.9543 39.4397L26.8907 36.7207L26.827 34.0017L19.4453 38.9227C12.5515 43.499 12.0636 43.8628 12.3818 44.15C12.806 44.533 26.5937 53.7048 26.7422 53.7048C26.8058 53.7048 26.8483 52.4985 26.8483 51.0241L26.8483 48.3434L40.5299 48.3434L54.2115 48.3434L54.2115 43.9394L54.2115 39.5354L40.5935 39.4971Z" fill="white"/>
<defs>
<clipPath id="clip0_4_27">
<rect width="66" height="64.0588" fill="white" transform="translate(-1.29412 12.9412)"/>
</clipPath>
</defs>
</svg>
