<svg width="17" height="17" viewBox="0 0 17 17" fill="none" xmlns="http://www.w3.org/2000/svg">
<path d="M7.0008 9.99596L15.7569 1.24304M7.24968 10.3896L9.23515 14.3605C9.71496 15.3201 9.95486 15.7999 10.2571 15.9286C10.5194 16.0403 10.8192 16.0201 11.0641 15.8742C11.3463 15.7062 11.5197 15.1985 11.8664 14.1832L15.6178 3.19681C15.9199 2.31213 16.0709 1.86979 15.9676 1.57717C15.8776 1.32261 15.6774 1.12237 15.4228 1.03243C15.1302 0.929049 14.6879 1.08009 13.8032 1.38218L2.81682 5.13362C1.8015 5.48032 1.29384 5.65366 1.12578 5.93589C0.97994 6.18082 0.959732 6.48063 1.07139 6.74291C1.20005 7.04514 1.67986 7.28504 2.63948 7.76485L6.61042 9.75032C6.76855 9.82938 6.84761 9.86891 6.91612 9.92173C6.97691 9.96859 7.03141 10.0231 7.07827 10.0839C7.13109 10.1524 7.17062 10.2315 7.24968 10.3896Z" stroke="white" stroke-linecap="round" stroke-linejoin="round"/>
</svg>
