<svg width="23" height="23" viewBox="0 0 23 23" fill="none" xmlns="http://www.w3.org/2000/svg">
<path d="M10.5619 1.10673H10.5791C10.8676 1.11285 11.1555 1.11469 11.4433 1.11469C11.7496 1.11469 12.0559 1.11265 12.3621 1.10857H12.3719C12.5355 1.10857 12.6059 1.16981 12.6316 1.33763C12.7284 1.95439 12.8417 2.56808 12.9379 3.18483C12.9906 3.51679 13.1762 3.72135 13.4947 3.80465C14.1874 3.98609 14.8529 4.25878 15.4737 4.61556C15.5931 4.68823 15.7296 4.72796 15.8694 4.7307C16.0431 4.72543 16.2104 4.66372 16.3459 4.55492C16.8427 4.18744 17.3474 3.83466 17.846 3.47024C17.8925 3.43053 17.9504 3.40671 18.0114 3.40226C18.0448 3.40429 18.0774 3.4133 18.1072 3.4287C18.1369 3.4441 18.1631 3.46555 18.1841 3.49168C18.6129 3.93327 19.0557 4.36628 19.4906 4.8042C19.5343 4.84639 19.5611 4.9031 19.566 4.96366C19.5708 5.02423 19.5534 5.08448 19.5169 5.13309C19.5059 5.14718 19.4961 5.16065 19.4869 5.17352C19.1439 5.65859 18.8064 6.14795 18.4518 6.62445C18.2172 6.93987 18.2325 7.23079 18.3985 7.57929C18.6812 8.16766 18.932 8.77079 19.15 9.38607C19.2793 9.75355 19.4796 9.96424 19.8636 10.0224C20.4431 10.1094 21.0188 10.2215 21.5989 10.3054C21.8163 10.3366 21.8917 10.4242 21.8868 10.6453C21.8727 11.2241 21.8763 11.8041 21.8868 12.3829C21.8868 12.5746 21.8145 12.6542 21.6301 12.6824C21.0433 12.7712 20.459 12.8777 19.8716 12.9653C19.4912 13.0223 19.2805 13.2226 19.1494 13.5925C18.9274 14.2145 18.6737 14.8247 18.3893 15.4207C18.2227 15.7717 18.2221 16.0626 18.4548 16.3749C18.8046 16.8459 19.1286 17.3334 19.4796 17.805C19.6021 17.9698 19.6106 18.0825 19.4526 18.2338C19.0281 18.6392 18.6147 19.0557 18.2074 19.4789C18.1835 19.5099 18.1535 19.5356 18.1192 19.5545C18.085 19.5733 18.0472 19.5849 18.0083 19.5886C17.938 19.5826 17.8714 19.5543 17.8184 19.5077C17.3339 19.1506 16.8384 18.8126 16.3514 18.4555C16.2109 18.342 16.0371 18.2775 15.8565 18.2717C15.7092 18.2743 15.5653 18.3166 15.44 18.3942C14.8473 18.7396 14.2107 19.0033 13.5473 19.1782C13.2184 19.2658 13.0292 19.4697 12.9753 19.8109C12.8797 20.4123 12.7664 21.0107 12.6763 21.6128C12.6463 21.8124 12.5704 21.892 12.3701 21.892H12.3542C12.0614 21.8855 11.7684 21.8822 11.4752 21.8822C11.1894 21.8822 10.9035 21.8855 10.6177 21.892H10.6005C10.3972 21.892 10.3267 21.8063 10.2979 21.6091C10.2122 21.0217 10.105 20.4374 10.0137 19.8507C9.95738 19.4875 9.75648 19.2891 9.40612 19.1647C8.79911 18.9485 8.19946 18.7042 7.61573 18.4298C7.47532 18.3587 7.32099 18.3194 7.16369 18.3146C6.98012 18.3183 6.80298 18.3829 6.6602 18.4984C6.17693 18.856 5.68018 19.1935 5.19323 19.55C5.14076 19.5956 5.07509 19.6233 5.0058 19.629C4.96646 19.6254 4.9283 19.6137 4.89371 19.5946C4.85913 19.5755 4.82889 19.5495 4.80489 19.5181C4.39144 19.0894 3.97003 18.6717 3.54433 18.2571C3.41632 18.1346 3.40284 18.031 3.51064 17.8841C3.86652 17.399 4.20524 16.9041 4.56295 16.4172C4.78958 16.111 4.78407 15.8243 4.6242 15.4826C4.33938 14.8793 4.08457 14.2607 3.84814 13.6366C3.7189 13.2973 3.52902 13.0854 3.15845 13.0309C2.55634 12.9408 1.95853 12.8245 1.35703 12.7308C1.17328 12.7014 1.09917 12.626 1.10284 12.4325C1.11346 11.8384 1.11346 11.2441 1.10284 10.6496C1.09978 10.4658 1.16409 10.3881 1.3405 10.3611C1.91933 10.2699 2.4957 10.1621 3.07576 10.0788C3.47573 10.0212 3.69685 9.8197 3.82976 9.42833C4.04247 8.81131 4.28908 8.20649 4.56846 7.61665C4.73323 7.26448 4.73445 6.97539 4.50108 6.66304C4.14153 6.18102 3.80588 5.68309 3.44939 5.19618C3.33791 5.04367 3.34098 4.94017 3.4794 4.80604C3.90694 4.39323 4.32733 3.97287 4.74058 3.54496C4.76404 3.51464 4.7935 3.48948 4.82712 3.47104C4.86073 3.4526 4.89779 3.44128 4.93597 3.43778C5.00691 3.44388 5.07406 3.47241 5.12769 3.51924C5.60668 3.87141 6.09914 4.20398 6.57568 4.56043C6.71576 4.67388 6.88974 4.73726 7.06998 4.7405C7.23055 4.73464 7.38776 4.69278 7.52998 4.61801C8.11799 4.33688 8.7201 4.08026 9.33323 3.85855C9.71605 3.72074 9.92553 3.5027 9.98249 3.10031C10.0646 2.52031 10.1791 1.94459 10.2679 1.36519C10.2973 1.17533 10.3757 1.10428 10.565 1.10428M11.4954 16.5385C12.832 16.5367 14.1134 16.0055 15.0591 15.0611C16.0048 14.1167 16.5378 12.8361 16.5413 11.4997C16.5585 8.73563 14.275 6.44071 11.5138 6.44071H11.4832C10.1444 6.44379 8.86165 6.97793 7.9164 7.92585C6.97116 8.87377 6.44072 10.158 6.44154 11.4966C6.44251 12.8341 6.97423 14.1164 7.91995 15.0622C8.86567 16.0079 10.1481 16.5398 11.4856 16.5409H11.4923M10.5619 0.00428772C9.8312 0.00428772 9.28668 0.473438 9.1752 1.20044C9.13722 1.44542 9.09496 1.69041 9.0527 1.94704C9.00186 2.23857 8.94979 2.53868 8.90508 2.84308C8.32257 3.0556 7.72353 3.30794 7.1202 3.59396C6.89174 3.42614 6.66204 3.26384 6.43909 3.10399C6.21613 2.94413 5.99501 2.78979 5.77941 2.63177C5.53766 2.44411 5.24137 2.34027 4.93536 2.33595C4.67871 2.33595 4.29895 2.41312 3.9443 2.78183C3.56271 3.17871 3.15967 3.58171 2.71253 4.0135C2.18026 4.5292 2.12023 5.24824 2.55818 5.84723V5.85029C2.71744 6.06649 2.87118 6.28453 3.03349 6.51482C3.19581 6.74511 3.36303 6.98152 3.53576 7.21671C3.26304 7.8003 3.02077 8.39765 2.80992 9.00634C2.48713 9.05472 2.16617 9.10862 1.85501 9.16129C1.62961 9.19988 1.39685 9.23908 1.17022 9.27521C0.447448 9.38729 -0.0119393 9.93545 0.00031104 10.671C0.0101113 11.2676 0.0101113 11.8549 0.00031104 12.4159C-0.0137768 13.154 0.451735 13.707 1.18492 13.8246C1.45626 13.8669 1.73312 13.9147 2.0014 13.9618C2.26968 14.009 2.55879 14.0586 2.84423 14.1027C3.09413 14.7586 3.33914 15.3429 3.59211 15.8831C3.42734 16.1085 3.26747 16.3345 3.11189 16.5568C2.95632 16.7792 2.78665 17.0162 2.62188 17.2391C2.18944 17.8289 2.24947 18.5406 2.7744 19.0533C3.24175 19.5089 3.64662 19.9138 4.0123 20.2917C4.36817 20.6591 4.74732 20.7388 5.0058 20.7388C5.31155 20.7332 5.6071 20.6278 5.84739 20.4387C6.07035 20.2745 6.29637 20.1147 6.53648 19.9487C6.75759 19.7919 6.98545 19.6308 7.21024 19.4654C7.76151 19.7221 8.34707 19.9615 8.94428 20.1771C8.97735 20.3841 9.01165 20.5887 9.04534 20.7896C9.09986 21.1142 9.1556 21.4498 9.20337 21.7751C9.31118 22.5198 9.85815 23 10.5968 23H10.6391C10.9129 22.9933 11.1904 22.9902 11.4727 22.9902C11.7551 22.9902 12.0406 22.9902 12.3303 23H12.3707C13.1094 23 13.657 22.5217 13.7685 21.7812C13.8181 21.4523 13.8763 21.1124 13.9326 20.7841C13.9663 20.5912 14 20.3927 14.0331 20.1931C14.6597 20.0119 15.264 19.7608 15.8345 19.4446C16.0403 19.5947 16.2479 19.7417 16.447 19.8844C16.684 20.0522 16.9297 20.2261 17.163 20.3982C17.4046 20.5862 17.701 20.6901 18.0071 20.6941C18.2643 20.6941 18.6453 20.6163 19.0012 20.2457C19.4367 19.7931 19.8336 19.3962 20.2127 19.0343C20.764 18.51 20.8222 17.7714 20.3647 17.1528C20.2023 16.9335 20.0455 16.7112 19.8801 16.476C19.7301 16.2635 19.5739 16.0473 19.4171 15.8274C19.7037 15.2149 19.9537 14.6165 20.1607 14.0402C20.4308 13.9986 20.6997 13.9539 20.9619 13.9104C21.2356 13.865 21.5186 13.8179 21.7937 13.7762C22.5287 13.6635 22.9972 13.1129 22.9881 12.3725V12.3688C22.9807 11.9039 22.974 11.2908 22.9881 10.6759C23.0058 9.89932 22.5213 9.3285 21.7551 9.21764C21.4635 9.17538 21.1732 9.12577 20.8663 9.07371C20.6378 9.03451 20.4026 8.99409 20.1662 8.95734C19.9616 8.38223 19.7117 7.7814 19.422 7.16955C19.667 6.83575 19.9053 6.49583 20.1362 6.16878C20.2195 6.05057 20.3028 5.93175 20.3867 5.81354L20.3922 5.80619C20.5897 5.54523 20.686 5.22164 20.6635 4.89518C20.641 4.56872 20.5011 4.26143 20.2697 4.03004C20.1084 3.86671 19.9467 3.70482 19.7846 3.54435C19.5163 3.27609 19.2388 2.99925 18.9718 2.72548C18.8493 2.59333 18.7009 2.48774 18.5359 2.41526C18.3709 2.34277 18.1928 2.30494 18.0126 2.3041C17.7179 2.30671 17.432 2.40493 17.1979 2.584C16.9713 2.74875 16.7398 2.91535 16.5156 3.07398C16.2914 3.2326 16.0678 3.39552 15.8418 3.55966C15.2556 3.24017 14.6364 2.98532 13.9951 2.79959C13.9577 2.57298 13.9191 2.3482 13.8818 2.12588C13.8273 1.81045 13.7715 1.4834 13.7213 1.16553C13.6117 0.461189 13.0818 0.00183826 12.3738 0.00183826H12.3486C11.9995 0.00612554 11.7116 0.00796238 11.4446 0.00796238C11.1383 0.00796238 10.8657 0.00796208 10.603 0L10.5619 0.00428772ZM11.4881 15.4385C10.97 15.4397 10.4569 15.3382 9.97834 15.14C9.49977 14.9417 9.06525 14.6506 8.69988 14.2834C8.33308 13.9179 8.04213 13.4836 7.84377 13.0054C7.64542 12.5271 7.54356 12.0144 7.54407 11.4966C7.54183 10.9801 7.64196 10.4683 7.83866 9.99076C8.03536 9.51318 8.32474 9.07931 8.69008 8.71419C9.43061 7.97116 10.4359 7.55258 11.485 7.5505H11.5095C12.0261 7.5513 12.5374 7.65499 13.0135 7.85552C13.4895 8.05606 13.9209 8.34942 14.2824 8.71848C14.6494 9.0818 14.9405 9.51458 15.1385 9.99156C15.3365 10.4685 15.4376 10.9802 15.4357 11.4966C15.4347 12.0158 15.3314 12.5296 15.1317 13.0088C14.932 13.488 14.6399 13.9232 14.2719 14.2895C13.9076 14.6553 13.4743 14.9453 12.9972 15.1427C12.5202 15.3401 12.0087 15.4411 11.4923 15.4397L11.4881 15.4385Z" fill="#131740"/>
</svg>
