<svg width="22" height="22" viewBox="0 0 22 22" fill="none" xmlns="http://www.w3.org/2000/svg">
<circle cx="11" cy="11" r="11" fill="#D5EAFF"/>
<path d="M8.75 11.0175L10.25 12.5889L13.25 9.44621M17 11.0175C17 14.5225 12.905 17.0622 11.4811 17.8394C11.327 17.9235 11.25 17.9655 11.1432 17.9873C11.06 18.0042 10.94 18.0042 10.8568 17.9873C10.75 17.9655 10.673 17.9235 10.5189 17.8394C9.09497 17.0622 5 14.5225 5 11.0175V8.04585C5 7.4177 5 7.10363 5.09807 6.83365C5.18471 6.59515 5.32549 6.38234 5.50824 6.21363C5.71512 6.02264 5.99585 5.91236 6.5573 5.6918L10.5787 4.11209C10.7346 4.05084 10.8125 4.02022 10.8927 4.00808C10.9639 3.99731 11.0361 3.99731 11.1073 4.00808C11.1875 4.02022 11.2654 4.05084 11.4213 4.11209L15.4427 5.6918C16.0042 5.91236 16.2849 6.02264 16.4918 6.21363C16.6745 6.38234 16.8153 6.59515 16.9019 6.83365C17 7.10363 17 7.4177 17 8.04585V11.0175Z" stroke="#3257A5" stroke-linecap="round" stroke-linejoin="round"/>
</svg>
