<svg width="25" height="25" viewBox="0 0 25 25" fill="none" xmlns="http://www.w3.org/2000/svg">
<path d="M15.375 3.3C15.375 2.49492 15.375 2.09239 15.5317 1.78489C15.6695 1.51441 15.8894 1.2945 16.1599 1.15668C16.4674 1 16.8699 1 17.675 1H21.7C22.5051 1 22.9076 1 23.2151 1.15668C23.4856 1.2945 23.7055 1.51441 23.8433 1.78489C24 2.09239 24 2.49492 24 3.3V7.325C24 8.13008 24 8.53261 23.8433 8.84011C23.7055 9.11059 23.4856 9.3305 23.2151 9.46832C22.9076 9.625 22.5051 9.625 21.7 9.625H17.675C16.8699 9.625 16.4674 9.625 16.1599 9.46832C15.8894 9.3305 15.6695 9.11059 15.5317 8.84011C15.375 8.53261 15.375 8.13008 15.375 7.325V3.3Z" stroke="#131740" stroke-linecap="round" stroke-linejoin="round"/>
<path d="M1 3.3C1 2.49492 1 2.09239 1.15668 1.78489C1.2945 1.51441 1.51441 1.2945 1.78489 1.15668C2.09239 1 2.49492 1 3.3 1H7.325C8.13008 1 8.53261 1 8.84011 1.15668C9.11059 1.2945 9.3305 1.51441 9.46832 1.78489C9.625 2.09239 9.625 2.49492 9.625 3.3V7.325C9.625 8.13008 9.625 8.53261 9.46832 8.84011C9.3305 9.11059 9.11059 9.3305 8.84011 9.46832C8.53261 9.625 8.13008 9.625 7.325 9.625H3.3C2.49492 9.625 2.09239 9.625 1.78489 9.46832C1.51441 9.3305 1.2945 9.11059 1.15668 8.84011C1 8.53261 1 8.13008 1 7.325V3.3Z" stroke="#131740" stroke-linecap="round" stroke-linejoin="round"/>
<path d="M1 17.675C1 16.8699 1 16.4674 1.15668 16.1599C1.2945 15.8894 1.51441 15.6695 1.78489 15.5317C2.09239 15.375 2.49492 15.375 3.3 15.375H7.325C8.13008 15.375 8.53261 15.375 8.84011 15.5317C9.11059 15.6695 9.3305 15.8894 9.46832 16.1599C9.625 16.4674 9.625 16.8699 9.625 17.675V21.7C9.625 22.5051 9.625 22.9076 9.46832 23.2151C9.3305 23.4856 9.11059 23.7055 8.84011 23.8433C8.53261 24 8.13008 24 7.325 24H3.3C2.49492 24 2.09239 24 1.78489 23.8433C1.51441 23.7055 1.2945 23.4856 1.15668 23.2151C1 22.9076 1 22.5051 1 21.7V17.675Z" stroke="#131740" stroke-linecap="round" stroke-linejoin="round"/>
<path d="M15.375 17.675C15.375 16.8699 15.375 16.4674 15.5317 16.1599C15.6695 15.8894 15.8894 15.6695 16.1599 15.5317C16.4674 15.375 16.8699 15.375 17.675 15.375H21.7C22.5051 15.375 22.9076 15.375 23.2151 15.5317C23.4856 15.6695 23.7055 15.8894 23.8433 16.1599C24 16.4674 24 16.8699 24 17.675V21.7C24 22.5051 24 22.9076 23.8433 23.2151C23.7055 23.4856 23.4856 23.7055 23.2151 23.8433C22.9076 24 22.5051 24 21.7 24H17.675C16.8699 24 16.4674 24 16.1599 23.8433C15.8894 23.7055 15.6695 23.4856 15.5317 23.2151C15.375 22.9076 15.375 22.5051 15.375 21.7V17.675Z" stroke="#131740" stroke-linecap="round" stroke-linejoin="round"/>
</svg>
