<svg width="14" height="14" viewBox="0 0 14 14" fill="none" xmlns="http://www.w3.org/2000/svg">
<path d="M1 2.2C1 1.77996 1 1.56994 1.08175 1.40951C1.15365 1.26839 1.26839 1.15365 1.40951 1.08175C1.56994 1 1.77996 1 2.2 1H4.3C4.72004 1 4.93006 1 5.09049 1.08175C5.23161 1.15365 5.34635 1.26839 5.41825 1.40951C5.5 1.56994 5.5 1.77996 5.5 2.2V5.8C5.5 6.22004 5.5 6.43006 5.41825 6.59049C5.34635 6.73161 5.23161 6.84635 5.09049 6.91825C4.93006 7 4.72004 7 4.3 7H2.2C1.77996 7 1.56994 7 1.40951 6.91825C1.26839 6.84635 1.15365 6.73161 1.08175 6.59049C1 6.43006 1 6.22004 1 5.8V2.2Z" stroke="#131A29" stroke-linecap="round" stroke-linejoin="round"/>
<path d="M8.5 8.2C8.5 7.77996 8.5 7.56994 8.58175 7.40951C8.65365 7.26839 8.76839 7.15365 8.90951 7.08175C9.06994 7 9.27996 7 9.7 7H11.8C12.22 7 12.4301 7 12.5905 7.08175C12.7316 7.15365 12.8463 7.26839 12.9183 7.40951C13 7.56994 13 7.77996 13 8.2V11.8C13 12.22 13 12.4301 12.9183 12.5905C12.8463 12.7316 12.7316 12.8463 12.5905 12.9183C12.4301 13 12.22 13 11.8 13H9.7C9.27996 13 9.06994 13 8.90951 12.9183C8.76839 12.8463 8.65365 12.7316 8.58175 12.5905C8.5 12.4301 8.5 12.22 8.5 11.8V8.2Z" stroke="#131A29" stroke-linecap="round" stroke-linejoin="round"/>
<path d="M1 11.2C1 10.78 1 10.5699 1.08175 10.4095C1.15365 10.2684 1.26839 10.1537 1.40951 10.0817C1.56994 10 1.77996 10 2.2 10H4.3C4.72004 10 4.93006 10 5.09049 10.0817C5.23161 10.1537 5.34635 10.2684 5.41825 10.4095C5.5 10.5699 5.5 10.78 5.5 11.2V11.8C5.5 12.22 5.5 12.4301 5.41825 12.5905C5.34635 12.7316 5.23161 12.8463 5.09049 12.9183C4.93006 13 4.72004 13 4.3 13H2.2C1.77996 13 1.56994 13 1.40951 12.9183C1.26839 12.8463 1.15365 12.7316 1.08175 12.5905C1 12.4301 1 12.22 1 11.8V11.2Z" stroke="#131A29" stroke-linecap="round" stroke-linejoin="round"/>
<path d="M8.5 2.2C8.5 1.77996 8.5 1.56994 8.58175 1.40951C8.65365 1.26839 8.76839 1.15365 8.90951 1.08175C9.06994 1 9.27996 1 9.7 1H11.8C12.22 1 12.4301 1 12.5905 1.08175C12.7316 1.15365 12.8463 1.26839 12.9183 1.40951C13 1.56994 13 1.77996 13 2.2V2.8C13 3.22004 13 3.43006 12.9183 3.59049C12.8463 3.73161 12.7316 3.84635 12.5905 3.91825C12.4301 4 12.22 4 11.8 4H9.7C9.27996 4 9.06994 4 8.90951 3.91825C8.76839 3.84635 8.65365 3.73161 8.58175 3.59049C8.5 3.43006 8.5 3.22004 8.5 2.8V2.2Z" stroke="#131A29" stroke-linecap="round" stroke-linejoin="round"/>
</svg>
