<svg width="25" height="25" viewBox="0 0 25 25" fill="none" xmlns="http://www.w3.org/2000/svg">
<path d="M1.5 12.5C1.5 12.2239 1.27614 12 1 12C0.723858 12 0.5 12.2239 0.5 12.5H1.5ZM3.875 4.89325L4.24987 5.22412L4.24987 5.22412L3.875 4.89325ZM3.13216 4.99976C2.95944 5.21522 2.99408 5.52991 3.20954 5.70262C3.425 5.87534 3.73968 5.84069 3.9124 5.62524L3.13216 4.99976ZM12.5 12.5H12C12 12.6326 12.0527 12.7598 12.1464 12.8536L12.5 12.5ZM13 6.75C13 6.47386 12.7761 6.25 12.5 6.25C12.2239 6.25 12 6.47386 12 6.75H13ZM15.7402 16.4473C15.9355 16.6426 16.252 16.6426 16.4473 16.4473C16.6426 16.252 16.6426 15.9355 16.4473 15.7402L15.7402 16.4473ZM3.52124 5.31812H3.02124C3.02124 5.59426 3.2451 5.81812 3.52124 5.81812V5.31812ZM4.02124 1.00562C4.02124 0.729473 3.79738 0.505615 3.52124 0.505615C3.2451 0.505615 3.02124 0.729473 3.02124 1.00562H4.02124ZM7.83374 5.81812C8.10988 5.81812 8.33374 5.59426 8.33374 5.31812C8.33374 5.04197 8.10988 4.81812 7.83374 4.81812V5.81812ZM23.5 12.5C23.5 18.5751 18.5751 23.5 12.5 23.5V24.5C19.1274 24.5 24.5 19.1274 24.5 12.5H23.5ZM12.5 23.5C6.42487 23.5 1.5 18.5751 1.5 12.5H0.5C0.5 19.1274 5.87258 24.5 12.5 24.5V23.5ZM12.5 1.5C18.5751 1.5 23.5 6.42487 23.5 12.5H24.5C24.5 5.87258 19.1274 0.5 12.5 0.5V1.5ZM4.24987 5.22412C6.2662 2.93964 9.21467 1.5 12.5 1.5V0.5C8.91585 0.5 5.69823 2.07196 3.50013 4.56239L4.24987 5.22412ZM3.9124 5.62524C4.02175 5.48884 4.13427 5.35509 4.24987 5.22412L3.50013 4.56239C3.37409 4.70519 3.25139 4.85103 3.13216 4.99976L3.9124 5.62524ZM13 12.5V6.75H12V12.5H13ZM12.1464 12.8536L15.7402 16.4473L16.4473 15.7402L12.8536 12.1464L12.1464 12.8536ZM4.02124 5.31812V1.00562H3.02124V5.31812H4.02124ZM3.52124 5.81812H7.83374V4.81812H3.52124V5.81812Z" fill="#131740"/>
</svg>
