<svg width="28" height="25" viewBox="0 0 28 25" fill="none" xmlns="http://www.w3.org/2000/svg">
<path d="M21.424 1.31336L21.197 1.75886L21.197 1.75886L21.424 1.31336ZM22.6804 2.56978L22.2349 2.79677L22.2349 2.79677L22.6804 2.56978ZM26.7671 8.84461L26.2858 8.98033L26.2858 8.98033L26.7671 8.84461ZM24.7804 6.85794L24.9161 6.37671L24.9161 6.37671L24.7804 6.85794ZM2.56978 23.6866L2.79677 23.2411L2.79677 23.2411L2.56978 23.6866ZM1.31336 22.4302L1.75886 22.2032L1.75886 22.2032L1.31336 22.4302ZM25.3052 23.6866L25.0782 23.2411L25.0782 23.2411L25.3052 23.6866ZM26.5616 22.4302L27.0071 22.6572L27.0071 22.6572L26.5616 22.4302ZM1.31336 2.56978L0.867853 2.34278L0.867853 2.34278L1.31336 2.56978ZM2.56978 1.31336L2.34278 0.867853L2.34278 0.867853L2.56978 1.31336ZM26.875 12.5H27.375C27.375 12.2239 27.1511 12 26.875 12V12.5ZM26.875 18.25V18.75C27.1511 18.75 27.375 18.5261 27.375 18.25H26.875ZM22.275 23.5H5.6V24.5H22.275V23.5ZM1.5 19.4V6.75H0.5V19.4H1.5ZM1.5 6.75V5.6H0.5V6.75H1.5ZM26.375 10.6312V19.4H27.375V10.6312H26.375ZM5.6 1.5H18.3937V0.5H5.6V1.5ZM22.9937 6.25H1V7.25H22.9937V6.25ZM22.4937 5.6V6.75H23.4937V5.6H22.4937ZM18.3937 1.5C19.2071 1.5 19.787 1.50039 20.2413 1.53751C20.6898 1.57415 20.9717 1.64408 21.197 1.75886L21.651 0.867853C21.2612 0.669275 20.8331 0.582526 20.3228 0.54083C19.8183 0.499611 19.1906 0.5 18.3937 0.5V1.5ZM23.4937 5.6C23.4937 4.80318 23.4941 4.17549 23.4529 3.67099C23.4112 3.16066 23.3245 2.73251 23.1259 2.34278L22.2349 2.79677C22.3497 3.02204 22.4196 3.30393 22.4562 3.75242C22.4934 4.20675 22.4937 4.78667 22.4937 5.6H23.4937ZM21.197 1.75886C21.6439 1.98656 22.0072 2.34989 22.2349 2.79677L23.1259 2.34278C22.8023 1.70774 22.286 1.19143 21.651 0.867853L21.197 1.75886ZM27.375 10.6312C27.375 9.72917 27.3797 9.17496 27.2483 8.70889L26.2858 8.98033C26.3703 9.27972 26.375 9.66145 26.375 10.6312H27.375ZM22.9937 7.25C23.9635 7.25 24.3453 7.25473 24.6447 7.33917L24.9161 6.37671C24.45 6.24527 23.8958 6.25 22.9937 6.25V7.25ZM27.2483 8.70889C26.9295 7.57872 26.0463 6.69545 24.9161 6.37671L24.6447 7.33917C25.44 7.56347 26.0615 8.18502 26.2858 8.98033L27.2483 8.70889ZM5.6 23.5C4.78667 23.5 4.20675 23.4996 3.75242 23.4625C3.30393 23.4258 3.02204 23.3559 2.79677 23.2411L2.34278 24.1321C2.73251 24.3307 3.16066 24.4175 3.67099 24.4592C4.17549 24.5004 4.80317 24.5 5.6 24.5V23.5ZM0.5 19.4C0.5 20.1968 0.499611 20.8245 0.54083 21.329C0.582526 21.8393 0.669275 22.2675 0.867853 22.6572L1.75886 22.2032C1.64408 21.978 1.57415 21.6961 1.53751 21.2476C1.50039 20.7932 1.5 20.2133 1.5 19.4H0.5ZM2.79677 23.2411C2.34989 23.0134 1.98656 22.6501 1.75886 22.2032L0.867853 22.6572C1.19143 23.2923 1.70774 23.8086 2.34278 24.1321L2.79677 23.2411ZM22.275 24.5C23.0718 24.5 23.6995 24.5004 24.204 24.4592C24.7143 24.4175 25.1425 24.3307 25.5322 24.1321L25.0782 23.2411C24.853 23.3559 24.5711 23.4258 24.1226 23.4625C23.6682 23.4996 23.0883 23.5 22.275 23.5V24.5ZM26.375 19.4C26.375 20.2133 26.3746 20.7932 26.3375 21.2476C26.3008 21.6961 26.2309 21.978 26.1161 22.2032L27.0071 22.6572C27.2057 22.2675 27.2925 21.8393 27.3342 21.329C27.3754 20.8245 27.375 20.1968 27.375 19.4H26.375ZM25.5322 24.1321C26.1673 23.8086 26.6836 23.2923 27.0071 22.6572L26.1161 22.2032C25.8884 22.6501 25.5251 23.0134 25.0782 23.2411L25.5322 24.1321ZM1.5 5.6C1.5 4.78667 1.50039 4.20675 1.53751 3.75242C1.57415 3.30393 1.64408 3.02204 1.75886 2.79677L0.867853 2.34278C0.669275 2.73251 0.582526 3.16066 0.54083 3.67099C0.499611 4.17549 0.5 4.80317 0.5 5.6H1.5ZM5.6 0.5C4.80317 0.5 4.17549 0.499611 3.67099 0.54083C3.16066 0.582526 2.73251 0.669275 2.34278 0.867853L2.79677 1.75886C3.02204 1.64408 3.30393 1.57415 3.75242 1.53751C4.20675 1.50039 4.78667 1.5 5.6 1.5V0.5ZM1.75886 2.79677C1.98656 2.34989 2.34989 1.98656 2.79677 1.75886L2.34278 0.867853C1.70774 1.19143 1.19143 1.70774 0.867853 2.34278L1.75886 2.79677ZM24 13H26.875V12H24V13ZM26.375 12.5V18.25H27.375V12.5H26.375ZM26.875 17.75H24V18.75H26.875V17.75ZM24 17.75C22.6883 17.75 21.625 16.6867 21.625 15.375H20.625C20.625 17.239 22.136 18.75 24 18.75V17.75ZM24 12C22.136 12 20.625 13.511 20.625 15.375H21.625C21.625 14.0633 22.6883 13 24 13V12Z" fill="#131740"/>
</svg>
