<svg width="28" height="28" viewBox="0 0 28 28" fill="none" xmlns="http://www.w3.org/2000/svg">
<path d="M14 27.8538C21.6513 27.8538 27.8538 21.6513 27.8538 14C27.8538 6.34879 21.6513 0.14624 14 0.14624C6.34879 0.14624 0.14624 6.34879 0.14624 14C0.14624 21.6513 6.34879 27.8538 14 27.8538Z" fill="#011529"/>
<path d="M14 27.8538C21.6513 27.8538 27.8538 21.6513 27.8538 14C27.8538 6.34879 21.6513 0.14624 14 0.14624C6.34879 0.14624 0.14624 6.34879 0.14624 14C0.14624 21.6513 6.34879 27.8538 14 27.8538Z" fill="url(#paint0_linear_646_2765)"/>
<path fill-rule="evenodd" clip-rule="evenodd" d="M14 0.292418C6.42951 0.292418 0.292418 6.42951 0.292418 14C0.292418 21.5705 6.42951 27.7076 14 27.7076C21.5705 27.7076 27.7076 21.5705 27.7076 14C27.7076 6.42951 21.5705 0.292418 14 0.292418ZM0 14C0 6.26801 6.26801 0 14 0C21.732 0 28 6.26801 28 14C28 21.732 21.732 28 14 28C6.26801 28 0 21.732 0 14Z" fill="white"/>
<path d="M23.5591 11.1753C23.215 10.7591 22.8505 10.4832 22.6253 10.6791C22.4587 10.8244 22.5951 11.2727 22.9382 11.688C23.2813 12.1032 23.6537 12.3654 23.8711 12.1841C24.0416 12.0418 23.9022 11.5905 23.5591 11.1753ZM23.7356 12.1071C23.7272 12.1085 23.7186 12.1085 23.7102 12.1071C23.6892 12.1078 23.6682 12.1038 23.6488 12.0954C23.6655 12.0679 23.6764 12.0373 23.6809 12.0055C23.6854 11.9737 23.6835 11.9413 23.6751 11.9102C23.6751 11.9102 23.6751 11.9004 23.6751 11.8965C23.6303 11.7474 23.4616 11.4277 23.1166 11.0369L23.0981 11.0164C23.0709 10.9844 23.0409 10.9551 23.0084 10.9287L22.9655 10.8936C22.9103 10.8514 22.8497 10.817 22.7852 10.7912C22.7641 10.7821 22.7423 10.7749 22.7199 10.7698C22.7267 10.7581 22.7608 10.7152 22.8827 10.7376C23.1936 10.7961 23.7813 11.4901 23.8116 11.8654C23.8223 12.035 23.7794 12.0915 23.7356 12.1071Z" fill="white"/>
<path d="M6.8903 21.253C6.52032 20.8338 6.20192 20.3717 5.94189 19.8767C6.02475 20.0531 6.11831 20.2335 6.22651 20.4148C6.42223 20.7387 6.65911 21.0358 6.93123 21.2988C6.91564 21.2823 6.902 21.2676 6.8903 21.253ZM9.19842 22.4636C8.68855 22.3862 8.1984 22.2111 7.75485 21.948C7.81333 21.985 7.8738 22.0211 7.93618 22.0562C8.05802 22.1273 8.18864 22.1946 8.32607 22.258C8.37188 22.2784 8.41669 22.2989 8.46348 22.3184L8.57461 22.3652C8.61652 22.3827 8.73348 22.4276 8.9021 22.4782C9.01628 22.4864 9.1308 22.4887 9.24521 22.4851C9.27445 22.4851 9.30273 22.4851 9.33197 22.4851C9.28421 22.4773 9.24131 22.4714 9.19842 22.4636Z" fill="white"/>
<path d="M15.6854 23.8448C15.7702 23.7561 14.8335 23.0553 14.8335 23.0553C14.8155 23.041 14.7926 23.0344 14.7697 23.0369C14.7469 23.0395 14.726 23.051 14.7116 23.0689C14.6972 23.0871 14.6906 23.1101 14.6932 23.1332C14.6957 23.1562 14.7073 23.1772 14.7253 23.1918C14.7253 23.1918 15.6074 23.9277 15.6854 23.8448Z" fill="white"/>
<path d="M5.50815 10.6022C5.27714 10.4151 4.9233 10.6997 4.59482 11.1325C4.26634 11.5653 4.14644 12.0175 4.32092 12.154C4.5451 12.3265 4.90579 12.0507 5.23525 11.6218C5.56471 11.1929 5.68165 10.7406 5.50815 10.6022ZM5.35804 10.724C5.29469 10.7525 5.23537 10.7892 5.18161 10.8332C5.16796 10.8449 5.15337 10.8576 5.13973 10.8712C5.10876 10.8991 5.08004 10.9294 5.05391 10.9619C5.04807 10.9687 5.04125 10.9755 5.0354 10.9833C4.70594 11.3859 4.54802 11.7124 4.51001 11.8606C4.50942 11.8661 4.50779 11.8714 4.50515 11.8762C4.49849 11.9074 4.49817 11.9396 4.5042 11.9709C4.51023 12.0022 4.52246 12.032 4.54023 12.0585C4.52138 12.0687 4.50028 12.0741 4.47883 12.0741C4.47077 12.0755 4.46253 12.0755 4.45447 12.0741C4.40865 12.0594 4.36478 12.0049 4.37161 11.8372C4.3872 11.461 4.94865 10.7445 5.25666 10.6763C5.37948 10.648 5.41459 10.6909 5.42044 10.7016C5.39906 10.7074 5.37818 10.7149 5.35804 10.724Z" fill="white"/>
<path d="M12.9589 22.5649C12.9426 22.5412 12.9175 22.525 12.8892 22.5197C12.8609 22.5144 12.8317 22.5205 12.8079 22.5367L11.8585 23.1546C11.8088 23.1887 11.0787 23.6537 11.1703 23.7258C11.2619 23.7979 11.9501 23.3457 11.9657 23.3359L12.9307 22.7189C12.9429 22.7109 12.9534 22.7005 12.9615 22.6883C12.9696 22.6761 12.9751 22.6624 12.9778 22.648C12.9804 22.6336 12.9801 22.6188 12.9769 22.6045C12.9736 22.5902 12.9675 22.5768 12.9589 22.5649Z" fill="white"/>
<path d="M16.0352 23.3319C16.0547 23.3456 16.7438 23.793 16.8306 23.7218C16.9173 23.6507 16.1921 23.1847 16.1424 23.1516L15.193 22.5336C15.1812 22.5256 15.168 22.52 15.1541 22.5171C15.1401 22.5143 15.1257 22.5141 15.1117 22.5168C15.0978 22.5195 15.0844 22.5249 15.0725 22.5327C15.0606 22.5405 15.0504 22.5506 15.0424 22.5624C15.0344 22.5742 15.0288 22.5874 15.0259 22.6013C15.0231 22.6153 15.0229 22.6297 15.0256 22.6437C15.0283 22.6576 15.0337 22.6709 15.0415 22.6828C15.0493 22.6947 15.0594 22.705 15.0711 22.713L16.0352 23.3319Z" fill="white"/>
<path d="M13.1677 23.0553C13.1677 23.0553 12.2309 23.7571 12.3157 23.8458C12.4005 23.9345 13.2758 23.1917 13.2758 23.1917C13.2849 23.1848 13.2925 23.1761 13.2982 23.1661C13.3038 23.1562 13.3075 23.1452 13.3088 23.1339C13.3102 23.1225 13.3093 23.111 13.3061 23.1C13.303 23.089 13.2976 23.0788 13.2905 23.0699C13.2761 23.0517 13.2551 23.04 13.2321 23.0372C13.209 23.0345 13.1859 23.041 13.1677 23.0553Z" fill="white"/>
<path opacity="0.3" d="M17.8871 9.66345L17.7516 9.62154L17.7156 9.6001C17.7741 9.62154 17.8306 9.642 17.8871 9.66345Z" fill="white"/>
<path opacity="0.3" d="M5.9244 13.3674C5.90685 13.4045 5.89028 13.4415 5.87371 13.4785C5.86494 13.4971 5.85619 13.5156 5.84839 13.5341C5.87178 13.4766 5.89808 13.421 5.9244 13.3674Z" fill="white"/>
<path opacity="0.3" d="M5.84839 13.5322C5.85619 13.5136 5.86494 13.4951 5.87371 13.4766C5.89028 13.4396 5.90685 13.4025 5.9244 13.3655C5.89808 13.421 5.87178 13.4766 5.84839 13.5322Z" fill="white"/>
<path d="M24.5924 11.0836C23.6557 8.88555 22.3135 6.37269 19.5034 5.05291C18.2168 2.72234 14.4114 2.84809 14.0985 2.84711H13.9036C13.5897 2.84711 9.78539 2.72234 8.49875 5.05291C5.68764 6.37366 4.34544 8.88555 3.4097 11.0836C0.949495 11.5436 -0.566211 18.9467 5.47514 22.098C6.41283 22.9752 7.31835 23.6302 8.85842 24.219C10.5003 24.8461 12.2445 25.1624 14.0021 25.1518C15.7585 25.1622 17.5017 24.8462 19.1427 24.2199C20.6838 23.6351 21.5883 22.9791 22.527 22.098C28.5684 18.9467 27.0497 11.5427 24.5924 11.0836ZM23.4803 9.46257C23.4462 9.44795 22.6293 9.06391 21.8291 9.46257C21.5162 9.61755 21.1741 10.0035 21.0912 10.5806L21.0513 10.5328C21.0191 10.4977 19.1993 8.66427 16.5314 8.24709C16.1649 8.18958 15.9057 8.02291 15.779 7.84064C15.5392 7.49753 15.7419 7.01115 15.8647 6.79281C16.0056 6.54583 16.1704 6.31335 16.357 6.09879C16.5743 5.85218 16.9643 5.49837 17.3259 5.33169C17.6875 5.16501 18.1369 5.32194 18.8854 5.56757C19.4323 5.74692 20.1009 6.24404 20.4245 6.50039C20.427 6.50282 20.43 6.50474 20.4332 6.50603C20.4364 6.50732 20.4399 6.50795 20.4434 6.50791C20.4469 6.50786 20.4503 6.50714 20.4535 6.50577C20.4567 6.50439 20.4596 6.50238 20.462 6.49989C20.4645 6.49739 20.4664 6.49444 20.4677 6.4912C20.469 6.48797 20.4696 6.48453 20.4696 6.48104C20.4695 6.47756 20.4688 6.47411 20.4674 6.4709C20.466 6.4677 20.4641 6.46479 20.4616 6.46236C20.117 6.09895 19.7189 5.79031 19.2811 5.5471C18.785 5.24923 18.2477 5.02621 17.6865 4.88526C17.7508 4.84627 17.8171 4.80826 17.8863 4.77025C17.8873 4.76635 21.6166 5.91164 23.4803 9.46257ZM9.34673 22.4849H9.32532C9.29607 22.4849 9.26779 22.4849 9.23855 22.4849C9.12414 22.4886 9.00962 22.4863 8.89545 22.4781C8.72682 22.4274 8.60986 22.3806 8.56795 22.365L8.45682 22.3183C8.41003 22.2988 8.36518 22.2783 8.31937 22.2578C8.18485 22.1945 8.05424 22.1272 7.92948 22.056C7.86449 22.0209 7.80407 21.9849 7.74819 21.9479L7.73843 21.942L7.72482 21.9342C7.4873 21.7935 7.26569 21.6275 7.06393 21.4391L7.05517 21.4312C7.00449 21.3825 6.95767 21.3387 6.92453 21.2987C6.65241 21.0357 6.41553 20.7385 6.2198 20.4146C6.11161 20.2333 6.01804 20.053 5.93519 19.8766L5.92838 19.861C5.76053 19.5168 5.62478 19.1579 5.52288 18.7888C5.45509 18.5152 5.40787 18.237 5.38158 17.9564C5.3811 17.9512 5.3811 17.9459 5.38158 17.9407C5.16616 15.9465 5.32017 11.2034 10.5983 9.909L10.6889 9.88756C10.9911 9.81543 11.2962 9.75402 11.6023 9.71113C12.1361 9.62943 12.679 9.62712 13.2135 9.7043H13.2223C13.4802 9.74403 13.7411 9.76164 14.0021 9.75694C14.2604 9.76214 14.5187 9.74485 14.774 9.70528H14.7838C15.1385 9.65164 15.498 9.63628 15.856 9.65947C16.8458 9.73716 17.817 9.97142 18.7334 10.3535C23.6538 12.4677 22.64 18.2224 22.4714 18.7907C22.2765 19.4555 22.0435 20.1631 21.1068 21.2538C20.8329 21.5755 19.9566 22.3387 18.6466 22.4869C18.361 22.5181 17.4877 22.6165 16.6202 22.1945C16.0831 21.9313 15.9525 21.6652 15.2994 21.4644C14.9038 21.3498 14.4926 21.2985 14.081 21.3123H13.9133C13.5017 21.2983 13.0905 21.3497 12.6949 21.4644C12.0399 21.6642 11.9152 21.9313 11.3722 22.1935C10.5106 22.6146 9.63721 22.5161 9.35064 22.4849H9.34673ZM5.84457 13.5321C5.86796 13.4765 5.89426 13.4209 5.92058 13.3654C5.90303 13.4024 5.88646 13.4395 5.86989 13.4765C5.86502 13.495 5.85627 13.5135 5.84847 13.5321H5.84457ZM20.714 11.3662C20.2266 10.8983 19.4088 10.1273 17.8873 9.66532L17.7518 9.62342C17.36 9.51337 16.961 9.43064 16.5578 9.37583L16.3736 9.35146C15.6163 9.26633 14.8528 9.25067 14.0927 9.30468C14.0654 9.30468 14.0264 9.30467 13.9952 9.2998L13.9026 9.30468C9.74834 9.0376 8.0796 10.605 7.2852 11.3662C7.07855 11.5612 6.29388 12.4677 6.12038 12.6743C6.62236 10.9334 8.5699 9.60001 10.2026 9.04831C11.1714 8.72081 12.269 8.63505 13.9972 8.67501C14.2571 8.66786 14.5031 8.6646 14.735 8.66525C16.05 8.66525 16.9662 8.77051 17.7889 9.04734C19.4215 9.59903 21.37 10.9325 21.872 12.6724C21.7024 12.4667 20.9187 11.5641 20.714 11.3662ZM13.9133 8.24709C13.8289 8.2525 13.7441 8.24527 13.6618 8.22565C13.6209 7.97222 13.0341 6.79085 12.7398 6.35223C12.3994 5.8576 11.9982 5.40766 11.5457 5.01295C11.3576 4.85115 11.2085 4.87455 11.1412 4.89892C10.89 4.70584 10.614 4.54748 10.3205 4.42812C10.3247 4.42442 10.3293 4.42114 10.3341 4.41836C10.6056 4.23866 10.8904 4.07998 11.1861 3.94368C11.3563 3.91388 11.5299 3.90861 11.7017 3.92807C12.4832 4.03579 13.2268 4.33184 13.8685 4.79071C13.888 4.80436 13.9026 4.81606 13.9153 4.82289C13.9341 4.83611 13.9567 4.84294 13.9796 4.84238C14.0018 4.84257 14.0235 4.83612 14.042 4.82386C14.0556 4.81607 14.0761 4.80143 14.1034 4.78291C14.8978 4.23609 15.6357 3.94952 16.2956 3.92807C16.5258 3.92363 16.7555 3.95186 16.9779 4.01191C17.2155 4.12773 17.4436 4.262 17.6602 4.41348L17.6787 4.42714C17.3851 4.54687 17.1088 4.7052 16.857 4.89794C16.7907 4.87358 16.6406 4.85115 16.4525 5.011C16.0009 5.40665 15.6001 5.85684 15.2594 6.35125C14.967 6.79085 14.3822 7.97124 14.3364 8.22467C14.2545 8.24486 14.17 8.2521 14.0859 8.24612H14.0732H14.0245H13.9952C13.9708 8.24612 13.9445 8.24612 13.9192 8.24612H13.9065L13.9133 8.24709ZM18.7753 4.4671C18.7753 4.4671 16.5285 4.41253 14.9592 8.1623H14.8374C14.8374 8.1623 15.393 6.7002 15.9642 6.03056C16.7868 5.07143 17.7391 4.29554 18.6388 4.34135C18.6486 4.3472 18.7733 4.4632 18.7733 4.4632L18.7753 4.4671ZM16.5334 3.37541C17.9857 3.71949 18.5111 4.23708 18.5111 4.23708C18.4507 4.24195 18.3893 4.24779 18.3298 4.25754C18.2879 4.26241 18.1134 4.28385 18.0705 4.29262C17.3325 3.82827 16.5343 3.4675 15.6981 3.22042C16.0032 3.25746 16.2829 3.31205 16.5314 3.37151L16.5334 3.37541ZM14.004 3.21654C14.8579 3.21654 15.7117 3.46508 16.3852 3.74093H16.2878C15.5899 3.7614 14.8179 4.06065 13.9932 4.62697L13.9767 4.63865C13.9759 4.6383 13.9751 4.63813 13.9743 4.63813C13.9734 4.63813 13.9726 4.6383 13.9718 4.63865C13.3064 4.16145 12.5344 3.85396 11.7231 3.74288L11.6549 3.73703C12.3245 3.45923 13.1638 3.21459 14.0021 3.21264L14.004 3.21654ZM11.4697 3.37638C11.7192 3.31595 11.998 3.26235 12.306 3.21752C11.6949 3.38712 10.8985 3.70488 9.93257 4.28971C9.89065 4.28192 9.71616 4.26046 9.67328 4.25461C9.61382 4.24584 9.55337 4.24 9.49294 4.23415C9.49294 4.23317 10.0174 3.71753 11.4697 3.37248V3.37638ZM9.3643 4.34135C10.2649 4.29652 11.2162 5.07241 12.0399 6.03056C12.6111 6.69533 13.1657 8.1623 13.1657 8.1623H13.0439C11.4756 4.4135 9.22784 4.4671 9.22784 4.4671C9.22784 4.4671 9.3526 4.34722 9.3643 4.33748V4.34135ZM10.111 4.77025C10.1802 4.80826 10.2474 4.84627 10.3117 4.88526C9.75044 5.02655 9.21311 5.24989 8.71706 5.54808C8.27881 5.79016 7.88065 6.09856 7.53668 6.46236C7.53151 6.46714 7.52844 6.47379 7.52816 6.48083C7.52789 6.48786 7.53042 6.49472 7.53521 6.49989C7.53999 6.50506 7.54664 6.50813 7.55367 6.50841C7.56071 6.50868 7.56759 6.50615 7.57276 6.50136C7.89539 6.24404 8.56501 5.74692 9.11281 5.56757C9.8653 5.32194 10.3127 5.16599 10.6724 5.33267C11.032 5.49935 11.4239 5.85316 11.6412 6.09977C11.8281 6.31433 11.9933 6.5468 12.1345 6.79378C12.2563 7.01115 12.46 7.49753 12.2202 7.84064C12.0925 8.02291 11.8303 8.18958 11.4668 8.24709C8.80089 8.66427 6.98303 10.4977 6.94794 10.5338C6.91285 10.5699 6.90796 10.5806 6.90796 10.5806C6.82511 10.0045 6.48298 9.61853 6.16911 9.46355C5.36984 9.06781 4.55205 9.45185 4.51793 9.46355C6.38551 5.91164 10.111 4.76635 10.111 4.76635V4.77025ZM2.32189 12.2074C2.472 12.0125 2.56849 12.0125 2.62502 12.0125C2.75466 12.0066 2.67086 12.3049 2.65039 12.4335C2.52978 13.2749 2.46756 14.1237 2.4642 14.9737C2.4642 14.9737 1.76432 14.8762 2.22147 16.5089C2.72248 18.3024 3.0656 17.9388 3.0656 17.9388C3.12506 18.4681 3.65825 19.9925 4.90687 21.48C0.0381118 17.7195 1.82186 12.8624 2.32189 12.2035V12.2074ZM2.92915 15.9786C2.92915 15.9786 2.65036 13.7465 3.08802 11.8994C3.10421 11.8189 3.14709 11.7463 3.20971 11.6932C3.27234 11.6401 3.35104 11.6097 3.43307 11.607H3.44378C3.44378 11.607 1.73609 17.0655 5.71688 21.8806C5.64377 21.8075 3.30344 19.5578 2.92915 15.9747V15.9786ZM21.0698 22.5941C19.0747 24.1529 16.6167 25.0018 14.0849 25.0065H13.9172C11.3856 25.0009 8.92787 24.1521 6.93233 22.5941C4.51988 20.7168 3.70602 17.7516 3.52569 16.7935C3.14555 14.7661 3.27811 13.1071 3.57053 11.9881C3.69724 11.5007 3.899 10.9851 4.22066 10.5796C4.63687 10.0572 4.97996 9.73063 5.66714 9.8398C6.35432 9.94897 6.42548 10.6059 6.44692 10.8243C6.44735 10.8664 6.43126 10.907 6.40209 10.9373C5.35328 12.3994 4.31129 14.4629 4.78403 17.6308C4.91659 18.8433 5.2714 19.8278 5.5492 20.3152C6.51613 21.9508 7.75013 23.0376 10.0573 24.0962C11.2859 24.5702 12.5863 24.8319 13.9026 24.8701C7.63709 24.5611 5.51997 19.7859 5.49171 19.7109C5.97907 20.4205 6.43521 21.0306 6.97326 21.5258C7.39223 21.919 7.87643 22.2363 8.40418 22.4635C8.54584 22.5246 8.694 22.5808 8.84866 22.6321C10.2425 23.0941 11.4463 22.4576 12.1627 22.0473C12.3916 21.9157 12.6305 21.8022 12.8772 21.7081C12.9405 21.7866 13.0296 21.8402 13.1287 21.8592H13.1355C13.3925 21.9085 13.6536 21.9333 13.9153 21.9332H13.9962H14.0742C14.3358 21.9333 14.5969 21.9085 14.8539 21.8592H14.8598C14.9589 21.8408 15.0481 21.7876 15.1113 21.7091C15.3581 21.8028 15.5971 21.9163 15.8258 22.0483C16.5393 22.4576 17.7421 23.0932 19.1398 22.6331C19.2948 22.5814 19.442 22.5259 19.5843 22.4635C20.1117 22.236 20.5958 21.9191 21.0152 21.5268C21.5523 21.0316 22.0114 20.4214 22.4968 19.7118C22.4675 19.7869 20.3524 24.5621 14.0859 24.8711C15.4022 24.8327 16.7025 24.571 17.9312 24.0971C20.2384 23.0386 21.4714 21.9527 22.4383 20.3171C22.72 19.8298 23.069 18.8453 23.2035 17.6327C23.6752 14.4649 22.6342 12.4043 21.5845 10.9393C21.5555 10.9084 21.5394 10.8676 21.5396 10.8252C21.5659 10.6079 21.6371 9.948 22.3194 9.84078C23.0017 9.73356 23.3506 10.0581 23.7659 10.5816C24.0875 10.9861 24.2903 11.5046 24.417 11.9901C24.7094 13.109 24.842 14.767 24.4609 16.7945C24.2951 17.7536 23.4812 20.7139 21.0698 22.5902V22.5941ZM22.2853 21.8806C26.2651 17.0703 24.5583 11.606 24.5583 11.606H24.5681C24.6502 11.6087 24.7291 11.6391 24.7919 11.6921C24.8547 11.7452 24.8977 11.8179 24.9141 11.8984C25.3508 13.7445 25.073 15.9777 25.073 15.9777C24.6987 19.5578 22.3584 21.8075 22.2853 21.8767V21.8806ZM23.0943 21.4771C24.3419 19.9896 24.877 18.4642 24.9365 17.9359C24.9365 17.9359 25.2796 18.2985 25.7797 16.5059C26.2378 14.8694 25.537 14.9698 25.537 14.9698C25.5336 14.1201 25.4714 13.2717 25.3508 12.4306C25.3303 12.3029 25.2475 12.0027 25.3761 12.0086C25.4336 12.0086 25.5301 12.0086 25.6793 12.2035C26.1793 12.8624 27.964 17.7185 23.0943 21.4732V21.4771Z" fill="white"/>
<path opacity="0.3" d="M15.8558 9.65762C15.3255 9.83892 14.6471 10.0036 14.0311 9.94419C13.339 9.87693 12.5242 9.72001 11.6069 9.71124C12.1407 9.62953 12.6837 9.62722 13.2182 9.70441H13.2269C13.4849 9.74413 13.7458 9.76175 14.0067 9.75705C14.2651 9.76224 14.5234 9.74496 14.7787 9.70538H14.7885C15.1415 9.65144 15.4993 9.63543 15.8558 9.65762Z" fill="white"/>
<defs>
<linearGradient id="paint0_linear_646_2765" x1="14" y1="0.14624" x2="14" y2="27.8538" gradientUnits="userSpaceOnUse">
<stop stop-color="#FFC6F2"/>
<stop offset="1" stop-color="#FF00C7"/>
</linearGradient>
</defs>
</svg>
