<svg width="88" height="88" viewBox="0 0 88 88" fill="none" xmlns="http://www.w3.org/2000/svg">
<path d="M44 87.5404C68.0467 87.5404 87.5404 68.0467 87.5404 44C87.5404 19.9532 68.0467 0.459473 44 0.459473C19.9532 0.459473 0.459473 19.9532 0.459473 44C0.459473 68.0467 19.9532 87.5404 44 87.5404Z" fill="#011529"/>
<path d="M44 87.5404C68.0467 87.5404 87.5404 68.0467 87.5404 44C87.5404 19.9532 68.0467 0.459473 44 0.459473C19.9532 0.459473 0.459473 19.9532 0.459473 44C0.459473 68.0467 19.9532 87.5404 44 87.5404Z" fill="url(#paint0_linear_646_2748)"/>
<path fill-rule="evenodd" clip-rule="evenodd" d="M44 0.919028C20.207 0.919028 0.919028 20.207 0.919028 44C0.919028 67.793 20.207 87.081 44 87.081C67.793 87.081 87.081 67.793 87.081 44C87.081 20.207 67.793 0.919028 44 0.919028ZM0 44C0 19.6995 19.6995 0 44 0C68.3005 0 88 19.6995 88 44C88 68.3005 68.3005 88 44 88C19.6995 88 0 68.3005 0 44Z" fill="white"/>
<path d="M74.0429 35.1222C72.9616 33.8141 71.8158 32.9472 71.1082 33.5629C70.5843 34.0194 71.0132 35.4286 72.0915 36.7336C73.1698 38.0386 74.3402 38.8627 75.0233 38.2929C75.5594 37.8456 75.1213 36.4272 74.0429 35.1222ZM74.5974 38.0509C74.5711 38.0552 74.5442 38.0552 74.5179 38.0509C74.4516 38.053 74.3856 38.0404 74.3248 38.0141C74.3772 37.9277 74.4115 37.8316 74.4257 37.7315C74.4399 37.6315 74.4337 37.5296 74.4075 37.432C74.4075 37.432 74.4075 37.4014 74.4075 37.3891C74.2666 36.9204 73.7366 35.9157 72.6521 34.6872L72.5939 34.6228C72.5087 34.5225 72.4144 34.4302 72.3121 34.3472L72.1774 34.2369C72.0039 34.1045 71.8132 33.9963 71.6106 33.9152C71.5444 33.8865 71.4757 33.864 71.4054 33.8479C71.4268 33.8111 71.534 33.6763 71.9169 33.7467C72.8942 33.9305 74.7414 36.1117 74.8363 37.2911C74.87 37.8242 74.7353 38.0019 74.5974 38.0509Z" fill="white"/>
<path d="M21.6553 66.7952C20.4925 65.4776 19.4918 64.0255 18.6746 62.4697C18.935 63.0242 19.229 63.5909 19.5691 64.1607C20.1842 65.1787 20.9287 66.1127 21.7839 66.9393C21.7349 66.8872 21.692 66.8412 21.6553 66.7952ZM28.9094 70.6001C27.3069 70.3567 25.7664 69.8064 24.3724 68.9795C24.5562 69.0959 24.7463 69.2092 24.9423 69.3195C25.3252 69.5431 25.7357 69.7545 26.1677 69.9537C26.3117 70.018 26.4525 70.0824 26.5995 70.1436L26.9488 70.2907C27.0805 70.3458 27.4481 70.4867 27.9781 70.646C28.3369 70.6718 28.6968 70.6789 29.0564 70.6675C29.1483 70.6675 29.2372 70.6675 29.3291 70.6675C29.179 70.643 29.0442 70.6246 28.9094 70.6001V70.6001Z" fill="white"/>
<path d="M49.2967 74.9407C49.5632 74.662 46.6192 72.4593 46.6192 72.4593C46.5627 72.4143 46.4907 72.3936 46.4189 72.4016C46.3471 72.4096 46.2814 72.4458 46.2362 72.5023C46.191 72.5593 46.1702 72.6318 46.1782 72.7041C46.1862 72.7764 46.2225 72.8426 46.2792 72.8883C46.2792 72.8883 49.0516 75.2011 49.2967 74.9407Z" fill="white"/>
<path d="M17.3114 33.3211C16.5854 32.7329 15.4733 33.6275 14.441 34.9876C13.4086 36.3478 13.0318 37.7692 13.5801 38.1981C14.2847 38.7403 15.4183 37.8734 16.4537 36.5255C17.4892 35.1776 17.8567 33.7561 17.3114 33.3211ZM16.8397 33.704C16.6406 33.7935 16.4541 33.9089 16.2852 34.0471C16.2423 34.0839 16.1964 34.1237 16.1535 34.1666C16.0562 34.2542 15.9659 34.3495 15.8838 34.4515C15.8655 34.473 15.844 34.4944 15.8256 34.5189C14.7902 35.7841 14.2939 36.8104 14.1744 37.276C14.1726 37.2932 14.1674 37.3098 14.1592 37.325C14.1382 37.423 14.1372 37.5242 14.1562 37.6227C14.1751 37.7211 14.2136 37.8147 14.2694 37.8979C14.2102 37.9301 14.1439 37.9469 14.0764 37.9469C14.0511 37.9513 14.0252 37.9513 13.9999 37.9469C13.8559 37.9009 13.718 37.7294 13.7394 37.2025C13.7885 36.02 15.553 33.7683 16.5211 33.5539C16.907 33.4651 17.0174 33.5999 17.0358 33.6335C16.9686 33.6516 16.9029 33.6751 16.8397 33.704V33.704Z" fill="white"/>
<path d="M40.7282 70.9183C40.6767 70.8439 40.598 70.7928 40.509 70.7761C40.4201 70.7595 40.3283 70.7787 40.2534 70.8294L37.2696 72.7716C37.1133 72.8788 34.8188 74.3401 35.1068 74.5668C35.3947 74.7935 37.5575 73.3721 37.6066 73.3414L40.6393 71.4023C40.6778 71.377 40.7108 71.3443 40.7363 71.3059C40.7617 71.2676 40.7791 71.2246 40.7874 71.1793C40.7957 71.1341 40.7947 71.0875 40.7846 71.0427C40.7744 70.9978 40.7552 70.9555 40.7282 70.9183V70.9183Z" fill="white"/>
<path d="M50.3965 73.3291C50.4578 73.372 52.6236 74.7781 52.8963 74.5544C53.1689 74.3308 50.8897 72.8665 50.7335 72.7623L47.7496 70.8201C47.7126 70.795 47.6711 70.7774 47.6273 70.7683C47.5835 70.7592 47.5383 70.7589 47.4943 70.7673C47.4504 70.7757 47.4084 70.7927 47.3711 70.8172C47.3337 70.8418 47.3015 70.8735 47.2764 70.9105C47.2512 70.9475 47.2337 70.9891 47.2246 71.0329C47.2155 71.0767 47.2152 71.1219 47.2236 71.1659C47.232 71.2098 47.249 71.2517 47.2735 71.2891C47.2981 71.3265 47.3297 71.3586 47.3667 71.3838L50.3965 73.3291Z" fill="white"/>
<path d="M41.3838 72.4594C41.3838 72.4594 38.4398 74.6651 38.7063 74.9439C38.9728 75.2227 41.7238 72.8884 41.7238 72.8884C41.7523 72.8665 41.7761 72.8391 41.7939 72.8079C41.8117 72.7767 41.8232 72.7422 41.8274 72.7065C41.8317 72.6709 41.8288 72.6347 41.8189 72.6002C41.809 72.5656 41.7922 72.5334 41.7697 72.5054C41.7245 72.4483 41.6585 72.4114 41.5862 72.4028C41.5138 72.3942 41.4411 72.4146 41.3838 72.4594V72.4594Z" fill="white"/>
<path opacity="0.3" d="M56.2168 30.3707L55.791 30.239L55.6777 30.1716C55.8615 30.239 56.0391 30.3033 56.2168 30.3707Z" fill="white"/>
<path opacity="0.3" d="M18.6195 42.012C18.5644 42.1284 18.5123 42.2448 18.4602 42.3612C18.4326 42.4194 18.4051 42.4776 18.3806 42.5358C18.4541 42.3551 18.5368 42.1805 18.6195 42.012Z" fill="white"/>
<path opacity="0.3" d="M18.3806 42.5297C18.4051 42.4715 18.4326 42.4133 18.4602 42.3551C18.5123 42.2387 18.5644 42.1223 18.6195 42.0059C18.5368 42.1805 18.4541 42.3551 18.3806 42.5297Z" fill="white"/>
<path d="M77.2901 34.834C74.3461 27.9259 70.1278 20.0284 61.2959 15.8805C57.2522 8.55585 45.2925 8.95107 44.3092 8.948H43.6965C42.7101 8.948 30.7536 8.55585 26.7099 15.8805C17.8749 20.0314 13.6566 27.9259 10.7157 34.834C2.98364 36.2799 -1.78001 59.5466 17.2071 69.4507C20.1541 72.2078 23 74.2664 27.8403 76.1167C33.0004 78.0878 38.4822 79.0819 44.006 79.0483V79.0483C49.5264 79.0811 55.0047 78.0881 60.1624 76.1198C65.0057 74.2817 67.8486 72.22 70.7987 69.4507C89.7858 59.5466 85.013 36.2768 77.2901 34.834ZM73.7946 29.7394C73.6874 29.6935 71.1203 28.4865 68.6052 29.7394C67.6219 30.2265 66.5466 31.4396 66.2863 33.2532L66.1606 33.1031C66.0595 32.9928 60.3401 27.2305 51.9555 25.9194C50.8036 25.7386 49.9888 25.2148 49.5906 24.6419C48.837 23.5636 49.4741 22.035 49.8601 21.3487C50.3027 20.5725 50.8209 19.8419 51.4071 19.1676C52.0902 18.3925 53.3157 17.2805 54.4523 16.7567C55.5888 16.2328 57.001 16.726 59.3538 17.498C61.0723 18.0617 63.1737 19.624 64.1908 20.4297C64.1986 20.4374 64.208 20.4434 64.2181 20.4474C64.2283 20.4515 64.2392 20.4535 64.2502 20.4534C64.2611 20.4532 64.272 20.4509 64.282 20.4466C64.2921 20.4423 64.3011 20.436 64.3088 20.4282C64.3164 20.4203 64.3224 20.411 64.3264 20.4009C64.3305 20.3907 64.3326 20.3799 64.3324 20.3689C64.3323 20.358 64.33 20.3471 64.3257 20.3371C64.3214 20.327 64.3151 20.3178 64.3073 20.3102C63.2244 19.168 61.9732 18.198 60.5974 17.4337C59.0382 16.4975 57.3495 15.7966 55.5857 15.3536C55.7878 15.2311 55.9962 15.1116 56.2137 14.9921C56.2168 14.9799 67.9374 18.5794 73.7946 29.7394ZM29.375 70.6669H29.3076C29.2157 70.6669 29.1269 70.6669 29.035 70.6669C28.6754 70.6783 28.3155 70.6712 27.9566 70.6454C27.4267 70.4861 27.0591 70.3391 26.9274 70.2901L26.5781 70.143C26.431 70.0817 26.2901 70.0174 26.1461 69.9531C25.7233 69.7539 25.3128 69.5425 24.9207 69.3189C24.7165 69.2086 24.5266 69.0953 24.351 68.9789L24.3203 68.9605L24.2775 68.936C23.531 68.4937 22.8345 67.972 22.2004 67.3798L22.1729 67.3553C22.0136 67.2021 21.8665 67.0643 21.7623 66.9387C20.9071 66.1121 20.1626 65.1781 19.5475 64.1601C19.2074 63.5903 18.9134 63.0236 18.653 62.4691L18.6316 62.4201C18.104 61.3385 17.6774 60.2104 17.3571 59.0504C17.1441 58.1906 16.9957 57.3161 16.913 56.4342C16.9115 56.4179 16.9115 56.4014 16.913 56.3851C16.236 50.1174 16.72 35.2107 33.3085 31.1425L33.5933 31.0751C34.543 30.8484 35.5019 30.6554 36.4638 30.5206C38.1414 30.2638 39.8478 30.2566 41.5275 30.4992H41.5552C42.3659 30.624 43.1858 30.6794 44.006 30.6646V30.6646C44.8179 30.6809 45.6297 30.6266 46.4322 30.5022H46.4628C47.5777 30.3337 48.7074 30.2854 49.8326 30.3583C52.9434 30.6024 55.9958 31.3387 58.8758 32.5395C74.34 39.184 71.1539 57.2704 70.624 59.0564C70.0113 61.1457 69.2791 63.3697 66.3352 66.7977C65.4743 67.8086 62.7204 70.2073 58.6032 70.673C57.7056 70.771 54.9607 71.0804 52.2343 69.754C50.5463 68.9268 50.1359 68.0905 48.0834 67.4595C46.8401 67.0994 45.5478 66.9381 44.2541 66.9815H43.7271C42.4335 66.9376 41.141 67.0989 39.8979 67.4595C37.8392 68.0875 37.4472 68.9268 35.7408 69.7509C33.0328 71.0743 30.2879 70.7649 29.3872 70.6669H29.375ZM18.3682 42.5292C18.4417 42.3546 18.5243 42.18 18.607 42.0054C18.5519 42.1218 18.4998 42.2383 18.4477 42.3547C18.4324 42.4129 18.4049 42.471 18.3804 42.5292H18.3682ZM65.1007 35.7223C63.569 34.2519 60.9987 31.8287 56.2167 30.3767L55.7909 30.245C54.5595 29.8991 53.3056 29.6391 52.0382 29.4668L51.4593 29.3902C49.0793 29.1227 46.6797 29.0735 44.2908 29.2432C44.205 29.2432 44.0825 29.2432 43.9844 29.2279L43.6935 29.2432C30.6372 28.4038 25.3925 33.3298 22.8958 35.7223C22.2464 36.335 19.7803 39.184 19.235 39.8334C20.8126 34.3621 26.9335 30.1714 32.0647 28.4375C35.1098 27.4082 38.5591 27.1386 43.9906 27.2642C44.8075 27.2418 45.5806 27.2315 46.3097 27.2336C50.4422 27.2336 53.3219 27.5644 55.9074 28.4344C61.0386 30.1683 67.1623 34.3591 68.74 39.8274C68.207 39.181 65.744 36.3442 65.1007 35.7223ZM43.7271 25.9194C43.4618 25.9364 43.1954 25.9136 42.9368 25.852C42.8081 25.0555 40.9639 21.3426 40.0388 19.9641C38.9689 18.4095 37.7082 16.9954 36.2861 15.7549C35.6948 15.2464 35.2261 15.3199 35.0148 15.3965C34.2253 14.7897 33.3577 14.292 32.4354 13.9169C32.4486 13.9052 32.4629 13.8949 32.4782 13.8862C33.3313 13.3214 34.2265 12.8227 35.1557 12.3944C35.6907 12.3007 36.2365 12.2841 36.7762 12.3453C39.2324 12.6838 41.5695 13.6143 43.5862 15.0565C43.6475 15.0993 43.6935 15.1361 43.7333 15.1576C43.7924 15.1991 43.8633 15.2206 43.9355 15.2188C44.0052 15.2194 44.0734 15.1992 44.1315 15.1606C44.1743 15.1361 44.2388 15.0901 44.3246 15.0319C46.8213 13.3133 49.1402 12.4127 51.2141 12.3453C51.9378 12.3313 52.6598 12.4201 53.3585 12.6088C54.1052 12.9728 54.8222 13.3948 55.5029 13.8709L55.5611 13.9138C54.6384 14.2901 53.77 14.7877 52.9788 15.3935C52.7704 15.3169 52.2986 15.2464 51.7073 15.7488C50.2879 16.9923 49.0285 18.4071 47.9578 19.961C47.0387 21.3426 45.2006 25.0524 45.0566 25.8489C44.7993 25.9124 44.5337 25.9351 44.2694 25.9163H44.2296H44.0764H43.9844C43.9078 25.9163 43.8252 25.9163 43.7455 25.9163H43.7058L43.7271 25.9194ZM59.0075 14.0394C59.0075 14.0394 51.9463 13.8679 47.0142 25.6529H46.6313C46.6313 25.6529 48.3774 21.0577 50.1726 18.9531C52.7581 15.9387 55.7511 13.5002 58.5786 13.6442C58.6093 13.6626 59.0013 14.0271 59.0013 14.0271L59.0075 14.0394ZM51.9616 10.6084C56.5261 11.6897 58.1773 13.3165 58.1773 13.3165C57.9874 13.3318 57.7944 13.3501 57.6075 13.3808C57.4758 13.3961 56.9274 13.4634 56.7926 13.491C54.4732 12.0316 51.9643 10.8978 49.3363 10.1212C50.2951 10.2377 51.1743 10.4092 51.9555 10.5961L51.9616 10.6084ZM44.0121 10.1091C46.6957 10.1091 49.3791 10.8902 51.496 11.7571H51.1896C48.9962 11.8215 46.5699 12.762 43.9783 14.5418L43.9262 14.5785C43.9238 14.5774 43.9212 14.5769 43.9186 14.5769C43.916 14.5769 43.9134 14.5774 43.911 14.5785C41.8195 13.0788 39.3934 12.1124 36.8436 11.7633L36.6292 11.7449C38.7338 10.8718 41.3714 10.1029 44.006 10.0968L44.0121 10.1091ZM36.0472 10.6114C36.8314 10.4215 37.7076 10.253 38.6756 10.1121C36.7549 10.6452 34.252 11.6438 31.2162 13.4819C31.0844 13.4574 30.536 13.39 30.4012 13.3716C30.2144 13.344 30.0244 13.3256 29.8345 13.3073C29.8345 13.3042 31.4827 11.6836 36.0472 10.5992V10.6114ZM29.4302 13.6442C32.2608 13.5033 35.2506 15.9418 37.8392 18.9531C39.6343 21.0424 41.3775 25.6529 41.3775 25.6529H40.9946C36.0655 13.8709 29.0013 14.0394 29.0013 14.0394C29.0013 14.0394 29.3934 13.6626 29.4302 13.632V13.6442ZM31.7768 14.9921C31.9943 15.1116 32.2055 15.2311 32.4077 15.3536C30.6437 15.7976 28.955 16.4996 27.396 17.4367C26.0186 18.1976 24.7673 19.1668 23.6862 20.3102C23.67 20.3252 23.6603 20.3461 23.6595 20.3682C23.6586 20.3904 23.6666 20.4119 23.6816 20.4282C23.6966 20.4444 23.7175 20.4541 23.7396 20.4549C23.7617 20.4558 23.7834 20.4478 23.7996 20.4328C24.8136 19.624 26.9181 18.0617 28.6398 17.498C31.0047 16.726 32.4108 16.2359 33.5412 16.7597C34.6717 17.2836 35.9031 18.3956 36.5863 19.1706C37.1734 19.845 37.6926 20.5756 38.1364 21.3518C38.5193 22.035 39.1595 23.5636 38.4059 24.6419C38.0046 25.2148 37.1806 25.7386 36.0379 25.9194C27.6594 27.2305 21.9462 32.9928 21.8359 33.1061C21.7256 33.2195 21.7103 33.2532 21.7103 33.2532C21.4499 31.4427 20.3746 30.2296 19.3882 29.7425C16.8761 28.4988 14.3059 29.7057 14.1987 29.7425C20.0683 18.5794 31.7768 14.9799 31.7768 14.9799V14.9921ZM7.29689 38.3661C7.76866 37.7534 8.0719 37.7534 8.24958 37.7534C8.65701 37.735 8.39364 38.6724 8.32931 39.0768C7.95026 41.7212 7.75471 44.3887 7.74414 47.0601C7.74414 47.0601 5.54453 46.7537 6.98128 51.885C8.55588 57.5217 9.63425 56.379 9.63425 56.379C9.82112 58.0424 11.4969 62.8337 15.4211 67.5084C0.119292 55.6897 5.72536 40.4247 7.29689 38.3538V38.3661ZM9.2054 50.2185C9.2054 50.2185 8.32923 43.2032 9.70471 37.398C9.7556 37.1451 9.89037 36.9168 10.0872 36.75C10.284 36.5832 10.5313 36.4877 10.7892 36.479H10.8228C10.8228 36.479 5.4558 53.6342 17.9668 68.7675C17.7371 68.5378 10.3818 61.4674 9.2054 50.2062V50.2185ZM66.2188 71.0099C59.9485 75.9089 52.2236 78.577 44.2664 78.5919H43.7394C35.7827 78.5742 28.0585 75.9064 21.7868 71.0099C14.2049 65.1098 11.647 55.7908 11.0803 52.7795C9.88552 46.4075 10.3021 41.1936 11.2212 37.6768C11.6194 36.1451 12.2535 34.5245 13.2644 33.2501C14.5725 31.6081 15.6508 30.5819 17.8105 30.925C19.9702 31.2681 20.1939 33.3328 20.2613 34.019C20.2626 34.1514 20.212 34.279 20.1204 34.3744C16.8241 38.9696 13.5493 45.4548 15.035 55.411C15.4517 59.2219 16.5668 62.3159 17.4399 63.8477C20.4788 68.9881 24.3571 72.4038 31.6082 75.7307C35.4696 77.2207 39.5563 78.0432 43.6935 78.163C24.0018 77.1919 17.348 62.1842 17.2592 61.9484C18.7909 64.1785 20.2245 66.0962 21.9155 67.6524C23.2322 68.8882 24.754 69.8854 26.4126 70.5995C26.8579 70.7914 27.3235 70.9681 27.8096 71.1294C32.1903 72.5815 35.9736 70.5811 38.2252 69.2914C38.9446 68.8777 39.6955 68.5213 40.4708 68.2253C40.6697 68.4722 40.9498 68.6405 41.2611 68.7002H41.2825C42.0902 68.8553 42.9108 68.9331 43.7333 68.9329H43.9876H44.2326C45.055 68.9331 45.8756 68.8552 46.6833 68.7002H46.7017C47.0131 68.6425 47.2936 68.4751 47.4921 68.2284C48.2679 68.5231 49.0188 68.8796 49.7376 69.2944C51.98 70.5811 55.7603 72.5784 60.1533 71.1325C60.6404 70.9701 61.103 70.7955 61.5502 70.5995C63.2077 69.8846 64.729 68.8886 66.0472 67.6555C67.7352 66.0993 69.1781 64.1816 70.7037 61.9514C70.6118 62.1873 63.9641 77.195 44.2694 78.1661C48.4065 78.0457 52.4931 77.2232 56.3547 75.7338V75.7338C63.6058 72.4069 67.4809 68.9942 70.5199 63.8538C71.4052 62.3221 72.5019 59.228 72.9247 55.4171C74.4074 45.461 71.1357 38.9849 67.8364 34.3806C67.7453 34.2835 67.6949 34.1552 67.6955 34.0221C67.7782 33.339 68.0018 31.2651 70.1462 30.9281C72.2906 30.5911 73.3873 31.6112 74.6923 33.2563C75.7032 34.5276 76.3405 36.1574 76.7387 37.683C77.6577 41.1998 78.0743 46.4106 76.8765 52.7825C76.3557 55.7969 73.7977 65.1006 66.2188 70.9977V71.0099ZM70.039 68.7675C82.5469 53.6495 77.1828 36.4759 77.1828 36.4759H77.2135C77.4717 36.4845 77.7195 36.5799 77.9168 36.7467C78.1141 36.9134 78.2494 37.1418 78.3009 37.3949C79.6733 43.1971 78.8004 50.2154 78.8004 50.2154C77.624 61.4674 70.2687 68.5378 70.039 68.7553V68.7675ZM72.5815 67.4992C76.5027 62.8245 78.1845 58.0302 78.3714 56.3699C78.3714 56.3699 79.4498 57.5094 81.0214 51.8758C82.4612 46.7323 80.2585 47.0478 80.2585 47.0478C80.2479 44.3774 80.0523 41.7109 79.6733 39.0676C79.609 38.6663 79.3487 37.7228 79.7531 37.7411C79.9338 37.7411 80.237 37.7411 80.7058 38.3538C82.2773 40.4247 87.8864 55.6867 72.5815 67.487V67.4992Z" fill="white"/>
<path opacity="0.3" d="M49.8326 30.3524C48.1661 30.9222 46.0339 31.4399 44.0978 31.2531C41.9227 31.0417 39.3617 30.5485 36.479 30.5209C38.1567 30.2641 39.8632 30.2569 41.5429 30.4995H41.5705C42.3812 30.6243 43.2011 30.6797 44.0212 30.6649V30.6649C44.8331 30.6812 45.6449 30.6269 46.4474 30.5025H46.4781C47.5877 30.333 48.7123 30.2827 49.8326 30.3524Z" fill="white"/>
<defs>
<linearGradient id="paint0_linear_646_2748" x1="44" y1="0.459473" x2="44" y2="87.5404" gradientUnits="userSpaceOnUse">
<stop stop-color="#FFC6F2"/>
<stop offset="1" stop-color="#FF00C7"/>
</linearGradient>
</defs>
</svg>
